<?xml version="1.0" encoding="utf-8"?>
<!-- Generator: Adobe Illustrator 16.0.0, SVG Export Plug-In . SVG Version: 6.00 Build 0)  -->
<!DOCTYPE svg PUBLIC "-//W3C//DTD SVG 1.1//EN" "http://www.w3.org/Graphics/SVG/1.1/DTD/svg11.dtd">
<svg version="1.1" id="Calque_1" xmlns="http://www.w3.org/2000/svg" xmlns:xlink="http://www.w3.org/1999/xlink" x="0px" y="0px"
	 width="200px" height="60.016px" viewBox="0 0 200 60.016" enable-background="new 0 0 200 60.016" xml:space="preserve">
<g id="Calque_1_1_" display="none">
	<g display="inline">
		<path fill="#414A4C" d="M30.005,0C13.434,0,0,13.436,0,30.008s13.434,30.008,30.005,30.008c16.571,0,30.005-13.437,30.005-30.008
			C60.011,13.436,46.577,0,30.005,0z M46.188,17.369c-1.389,0.049-2.348-0.781-2.393-2.042c-0.014-0.463,0.105-0.866,0.423-1.34
			c0.309-0.605,0.375-0.676,0.367-0.94c-0.028-0.794-1.228-0.823-1.556-0.81c-4.504,0.148-5.692,6.229-6.653,11.172l-0.471,2.606
			c2.593,0.38,4.435-0.089,5.462-0.753c1.445-0.938-0.405-1.902-0.173-2.972c0.238-1.089,1.227-1.613,2.013-1.635
			c1.102-0.028,1.888,1.114,1.863,2.273c-0.039,1.917-2.582,4.55-7.667,4.441c-0.62-0.015-1.189-0.059-1.721-0.124l-0.96,5.298
			c-0.858,4.01-2,9.488-6.082,14.27c-3.508,4.173-7.067,4.818-8.662,4.873c-2.982,0.104-4.959-1.489-5.03-3.61
			c-0.068-2.057,1.749-3.18,2.942-3.217c1.59-0.053,2.692,1.101,2.734,2.43c0.041,1.124-0.546,1.477-0.935,1.688
			c-0.26,0.209-0.65,0.422-0.635,0.885c0.008,0.198,0.221,0.652,0.882,0.633c1.261-0.045,2.099-0.667,2.685-1.085
			c2.905-2.42,4.023-6.639,5.487-14.318l0.307-1.86c0.5-2.498,1.053-5.281,1.897-8.058c-2.048-1.542-3.275-3.452-6.029-4.199
			c-1.888-0.515-3.04-0.077-3.848,0.945c-0.959,1.212-0.64,2.789,0.286,3.714l1.53,1.691c1.875,2.168,2.9,3.854,2.514,6.121
			c-0.612,3.623-4.926,6.4-10.026,4.833c-4.353-1.342-5.167-4.424-4.645-6.123c0.461-1.494,1.648-1.776,2.81-1.422
			c1.243,0.386,1.73,1.896,1.375,3.057c-0.04,0.124-0.104,0.334-0.234,0.61c-0.145,0.319-0.412,0.601-0.527,0.973
			c-0.28,0.913,0.969,1.562,1.84,1.828c1.948,0.603,3.849-0.417,4.331-1.994c0.447-1.45-0.469-2.461-0.848-2.849l-1.845-1.976
			c-0.844-0.939-2.699-3.561-1.795-6.502c0.349-1.134,1.085-2.338,2.152-3.135c2.252-1.679,4.702-1.955,7.033-1.283
			c3.017,0.867,4.467,2.863,6.347,4.403c1.052-3.085,2.511-6.105,4.704-8.656c1.98-2.321,4.641-4.005,7.689-4.107
			c3.045-0.103,5.348,1.278,5.424,3.465C48.58,15.5,48.045,17.308,46.188,17.369z M109.318,21.81c-0.006,0-0.01,0.003-0.016,0.003
			c-0.633,0-1.244,0.434-1.514,1.016l-4.126,12.364h-0.065l-4.039-12.357c-0.265-0.586-0.879-1.021-1.517-1.021
			c-0.006,0-0.006-0.003-0.014-0.003h-2.094l5.524,15.095c0.19,0.541,0.573,1.364,0.573,1.714c0,0.316-0.893,3.991-3.574,3.991
			c-0.069,0-0.132-0.005-0.2-0.008c-0.685-0.036-1.203,0.436-1.317,1.169l-0.08,1.032c0.542,0.095,1.088,0.222,2.045,0.222
			c3.958,0,5.136-3.586,6.259-6.691l6.001-16.521h-1.847V21.81L109.318,21.81z M90.24,25.096c-2.478-1.261-5.189-2.115-5.237-4.649
			c0.007-2.692,2.498-3.398,4.416-3.396c0.009-0.001,0.016-0.001,0.021-0.001c0.834,0,1.499,0.083,2.151,0.225
			c0.009,0,0.007-0.01,0.018-0.01c0.688,0.049,1.264-0.484,1.346-1.157l0.055-0.979c-1.258-0.309-2.574-0.468-3.716-0.468
			c-4.173,0.025-7.271,2.11-7.28,6.089c0.005,3.479,2.367,4.827,4.905,6.048c2.488,1.19,5.216,2.172,5.241,5.04
			c-0.016,2.997-2.925,4.106-4.93,4.108c-1.173-0.002-2.447-0.295-3.521-0.636c-0.671-0.109-1.222,0.481-1.308,1.263l-0.092,0.871
			c1.475,0.476,2.988,0.886,4.506,0.886c0,0,0.001,0,0.005,0h0.014c4.673-0.034,8.305-1.884,8.318-6.693
			C95.146,27.93,92.767,26.372,90.24,25.096z M141.98,20.525v1.282h-3.83v1.258c0.098,0.649,0.656,1.149,1.342,1.149
			c0.003,0,0.007,0.003,0.011,0.003h2.478v13.765h1.653c0.005,0,0.003-0.002,0.007-0.002c0.686,0,1.25-0.512,1.342-1.168V24.219h3
			c0.709-0.021,1.275-0.581,1.311-1.282V21.81h-4.311v-1.539c0-2.188,0.319-3.837,2.901-3.837c0.05,0,0.101,0.003,0.147,0.005
			c0.009,0,0.007-0.008,0.014-0.008c0.719,0.054,1.312-0.529,1.354-1.241l0.053-0.977c-0.605-0.096-1.248-0.19-2.01-0.19
			C143,14.022,141.98,16.591,141.98,20.525z M131.305,21.43c-1.467,0-3.924,0.825-5.039,3.141c-0.863-2.19-2.748-3.141-4.629-3.141
			c-2.394,0-4.021,0.854-5.174,2.728h-0.061V23.15c-0.012-0.74-0.612-1.338-1.359-1.338c-0.007,0-0.01-0.003-0.016-0.003h-1.438
			v16.174h1.628c0.001,0,0.001-0.002,0.004-0.002c0.752,0,1.359-0.604,1.359-1.354c0-0.018,0.008-0.026,0.013-0.041v-6.753
			c0-3.014,1.216-5.995,4.276-5.995c2.427,0,2.906,2.506,2.906,4.503v9.643h1.646c0.002,0,0.002-0.002,0.006-0.002
			c0.71,0,1.283-0.543,1.349-1.229v-6.919c0-3.014,1.213-5.995,4.279-5.995c2.424,0,2.901,2.506,2.901,4.503v9.643h1.674
			c0.002,0,0.002-0.002,0.003-0.002c0.648,0,1.188-0.452,1.326-1.055v-9.313C136.96,24.094,135.461,21.43,131.305,21.43z
			 M177.262,21.43c-2.263,0-4.435,1.109-5.328,2.95h-0.062v-1.209c0-0.001-0.003-0.001-0.003-0.005c0-0.748-0.611-1.354-1.361-1.354
			c-0.007,0-0.01-0.004-0.016-0.004h-1.53v16.175h1.652c0,0,0-0.002,0.005-0.002c0.711,0,1.291-0.55,1.346-1.246v-6.237
			c0-3.93,1.537-6.659,4.95-6.659c2.617,0.159,3.447,1.997,3.447,5.771v8.372H182v0.001c0.004,0,0.004-0.002,0.008-0.002
			c0.73,0,1.319-0.574,1.352-1.289v-8.316C183.359,24.031,181.479,21.43,177.262,21.43z M158.002,21.43
			c-4.982,0-8.301,3.552-8.301,8.467c0,4.63,3.388,8.467,8.301,8.467c4.883,0,8.268-3.838,8.268-8.467
			C166.27,24.981,162.952,21.43,158.002,21.43z M158.002,35.955c-3.544,0-5.107-3.172-5.107-6.059c0-3.076,1.885-6.058,5.107-6.058
			c3.189,0,5.075,2.98,5.075,6.058C163.078,32.783,161.51,35.955,158.002,35.955z M198.157,21.812V21.81
			c-0.007,0-0.009,0.003-0.015,0.003c-0.633,0-1.248,0.434-1.514,1.016l-4.127,12.364h-0.07l-4.037-12.357
			c-0.262-0.586-0.879-1.021-1.514-1.021c-0.006,0-0.01-0.003-0.016-0.003h-2.094l5.522,15.095c0.19,0.541,0.576,1.364,0.576,1.714
			c0,0.316-0.896,3.991-3.578,3.991c-0.063,0-0.133-0.005-0.199-0.008c-0.682-0.036-1.198,0.436-1.313,1.169l-0.082,1.032
			c0.543,0.095,1.086,0.222,2.045,0.222c3.959,0,5.141-3.586,6.258-6.691l6-16.521h-1.843V21.812z"/>
	</g>
</g>
<g id="Calque_2" display="none">
	<g display="inline">
		<path fill="#414A4C" d="M120.547,18.953c-6.824,0-10.214,3.493-10.214,8.58c0,3.273,1.649,5.573,3.836,6.635
			c-1.069,0.973-1.962,1.814-2.765,2.653c-0.805,0.841-1.295,1.726-1.295,2.699c0,1.193,0.49,2.3,1.963,2.917
			c-1.561,1.462-2.454,2.521-2.454,4.513c0,3.493,3.079,5.528,11.151,5.528c7.763,0,12.267-2.874,12.267-7.961
			c0-5.88-4.55-6.104-12.267-6.59l-4.371-0.265l1.473-2.344c0.802,0.221,2.097,0.396,3.525,0.396c5.619,0,9.5-2.875,9.5-7.783
			c0-2.035-0.849-3.45-1.65-4.469l4.104-0.309v-3.759h-8.699C123.625,19.129,122.465,18.953,120.547,18.953z M122.555,44.075
			c2.143,0.133,3.838,0.221,3.838,1.638c0,2.386-3.524,2.565-6.111,2.565c-3.123,0-5.398-0.531-5.398-2.3
			c0-0.886,0.579-1.638,1.16-2.344L122.555,44.075z M120.816,31.071c-2.945,0-4.149-1.504-4.149-3.671
			c0-2.875,1.828-4.069,4.28-4.069c2.544,0,4.062,1.372,4.062,3.98C125.009,29.613,123.312,31.071,120.816,31.071z M141.199,15.427
			c2.587,0,4.059-1.46,4.059-3.981c0-2.521-1.472-3.893-4.059-3.893c-2.545,0-4.016,1.372-4.016,3.893
			S138.654,15.427,141.199,15.427z M145.168,37.32V18.966h-9.234l-0.49,3.581l2.408,0.842c0.448,0.131,0.582,0.441,0.582,0.927
			V37.32c0,0.665-0.09,0.796-0.713,0.886l-2.277,0.31v3.492h12.715v-3.492l-2.274-0.31C145.211,38.116,145.168,38.028,145.168,37.32
			z M164.592,36.399c-1.07,0.398-2.363,0.707-3.613,0.707c-2.408,0-3.033-1.018-3.033-3.626V22.91h6.646v-4.422h-6.289
			c-0.357,0-0.357-0.133-0.357-0.442v-6.281h-4.238c-0.49,4.82-2.051,6.768-5.977,7.21v3.937h3.123c0.357,0,0.357,0.177,0.357,0.442
			V34.94c0,5,2.006,7.12,7.314,7.12c2.543,0,5.354-0.841,7.271-1.769L164.592,36.399z M66.866,1.134
			c-1.507-1.509-3.954-1.509-5.462,0l-5.438,5.441l6.898,6.902c1.604-0.542,3.442-0.18,4.72,1.1c1.285,1.287,1.645,3.142,1.09,4.751
			l6.649,6.651c1.609-0.555,3.465-0.195,4.749,1.092c1.796,1.796,1.796,4.706,0,6.503c-1.796,1.797-4.705,1.797-6.502,0
			c-1.35-1.353-1.684-3.337-1-5.001l-6.201-6.204v16.325c0.438,0.217,0.851,0.506,1.216,0.869c1.795,1.796,1.795,4.706,0,6.504
			c-1.796,1.796-4.706,1.796-6.5,0c-1.795-1.798-1.795-4.708,0-6.504c0.444-0.443,0.957-0.778,1.505-1.003V22.084
			c-0.548-0.225-1.06-0.558-1.505-1.004c-1.36-1.358-1.688-3.355-0.99-5.027l-6.8-6.805l-17.96,17.965
			c-1.509,1.512-1.509,3.958,0,5.469l26.19,26.198c1.508,1.511,3.954,1.511,5.463,0l26.067-26.078c1.509-1.51,1.509-3.958,0-5.467
			L66.866,1.134z"/>
	</g>
</g>
<g id="Calque_3" display="none">
	<g display="inline">
		<path fill="#414A4C" d="M169.311,40.686h4.273V19.921h-4.273V40.686z M54.008,11.243c-0.047-0.029-0.093-0.053-0.14-0.082
			c-2.67-1.677-5.293-2.466-7.87-4.006c-0.248-0.149-0.496-0.295-0.744-0.459c-1.774-1.209-4.234-4.088-6.295-6.563
			c0,0.002,0,0.005-0.001,0.007c-0.003-0.005-0.007-0.01-0.011-0.014c-0.121,1.201-0.317,2.171-0.562,2.999
			c-0.518,1.698-1.269,2.712-2.109,3.479c-0.101,0.087-0.2,0.177-0.305,0.257c-2.919,2.303-4.75,2.994-7.268,4.376
			c-0.217,0.118-0.537,0.3-0.929,0.54c-1.523,0.921-4.179,2.79-6.671,5.746c-3.141,3.713-6.018,9.141-6.018,16.568
			c0,0.897,0.06,1.776,0.147,2.644c0.006,0.057,0.011,0.114,0.018,0.17c0.044,0.411,0.097,0.818,0.161,1.222
			c0.007,0.042,0.015,0.084,0.021,0.126c0.205,1.256,0.498,2.477,0.876,3.653c0.012,0.038,0.023,0.077,0.036,0.115
			c0.117,0.356,0.243,0.709,0.375,1.059c0.034,0.09,0.069,0.18,0.104,0.271c0.134,0.342,0.271,0.681,0.419,1.015
			c0.021,0.049,0.045,0.096,0.066,0.144c0.368,0.818,0.767,1.617,1.215,2.384c0.11,0.188,0.234,0.368,0.35,0.554
			c0.101,0.163,0.203,0.326,0.307,0.486c0.159,0.243,0.32,0.485,0.487,0.724c0.124,0.177,0.253,0.35,0.382,0.523
			c0.258,0.349,0.524,0.69,0.8,1.025c0.172,0.209,0.343,0.419,0.521,0.623c0.166,0.189,0.336,0.372,0.507,0.556
			c0.176,0.189,0.354,0.376,0.535,0.561c0.167,0.169,0.333,0.338,0.504,0.503c0.252,0.242,0.51,0.478,0.771,0.709
			c0.188,0.167,0.377,0.331,0.57,0.492c0.276,0.231,0.556,0.459,0.841,0.68c0.156,0.121,0.315,0.238,0.475,0.355
			c0.269,0.197,0.542,0.391,0.818,0.579c0.142,0.097,0.283,0.195,0.427,0.289c0.412,0.27,0.829,0.528,1.255,0.773
			c0.084,0.049,0.171,0.093,0.256,0.141c0.368,0.207,0.741,0.405,1.119,0.595c0.129,0.064,0.259,0.128,0.389,0.189
			c0.389,0.188,0.782,0.365,1.18,0.534c0.077,0.032,0.152,0.067,0.229,0.099c0.493,0.203,0.992,0.393,1.497,0.565
			c0.053,0.018,0.107,0.034,0.161,0.052c0.458,0.154,0.92,0.294,1.387,0.424c0.085,0.023,0.17,0.048,0.255,0.07
			c1.062,0.283,2.144,0.501,3.243,0.65c0.022,0.003,0.045,0.005,0.067,0.009c0.541,0.072,1.086,0.126,1.634,0.164
			c0.03,0.002,0.059,0.005,0.088,0.007c0.574,0.038,1.15,0.064,1.729,0.064c13.789,0,25.749-10.075,25.749-25.331
			C67.055,19.302,55.84,12.394,54.008,11.243z M54.339,54.472c-0.286,0.287-2.918,2.13-6.008,2.417s-7.268,0.461-9.785-1.843
			c-0.4-0.402-0.286-0.979,0-1.209c0.286-0.229,0.516-0.402,0.858-0.402c0.344,0,0.286,0,0.458,0.115
			c1.145,0.922,2.86,1.669,6.523,1.669c3.661,0,6.237-1.035,7.381-1.899c0.515-0.402,0.744-0.058,0.802,0.173
			C54.625,53.723,54.74,54.068,54.339,54.472z M44.325,49.233c0.629-0.576,1.659-1.498,2.632-1.9s1.488-0.345,2.404-0.345
			c0.915,0,1.888,0.058,2.574,0.518c0.688,0.461,1.087,1.497,1.316,2.072c0.229,0.576,0,0.921-0.458,1.151
			c-0.4,0.23-0.458,0.115-0.858-0.633c-0.4-0.749-0.744-1.497-2.746-1.497c-2.003,0-2.632,0.69-3.605,1.497
			c-0.973,0.806-1.315,1.094-1.659,0.633C43.581,50.269,43.695,49.809,44.325,49.233z M65.269,40.021
			c0,1.785-0.573,5.008-1.945,7.023c-1.374,2.016-2.231,2.764-3.835,2.647c-2.06-0.172-6.18-6.621-8.811-6.735
			c-3.319-0.115-10.529,6.966-16.194,6.966c-3.434,0-4.464-0.519-5.608-1.267c-1.716-1.209-2.574-3.051-2.517-5.584
			c0.057-4.491,4.234-8.693,9.498-8.75c6.694-0.058,11.33,6.678,14.706,6.62c2.861-0.059,8.354-5.699,11.043-5.699
			C64.467,35.243,65.269,38.237,65.269,40.021z M176.738,20.687h1.22v3.289h0.894v-3.289h1.219v-0.745h-3.33v0.745H176.738z
			 M140.559,24.479c-4.672,0-8.459,3.761-8.459,8.396c0,0,0,11.479,0,13.021h4.303v-5.707c0,0,0.002,0.001,0.002,0.002v-2.139
			c0,0,0.008-0.171,0.162-0.173c0.139-0.001,0.17,0.09,0.203,0.173c0.326,0.805,2.114,3.866,6.088,2.906
			c3.555-0.995,6.162-4.233,6.162-8.083C149.02,28.24,145.23,24.479,140.559,24.479z M140.562,37.127
			c-2.365,0-4.283-1.902-4.283-4.251c0-2.347,1.918-4.25,4.283-4.25s4.281,1.903,4.281,4.25
			C144.846,35.224,142.93,37.127,140.562,37.127z M183.656,19.941l-0.899,2.772h-0.011l-0.951-2.772h-1.258v4.034h0.837v-2.831
			h0.011l0.997,2.831h0.688l0.996-2.859h0.012v2.859h0.837v-4.034H183.656z M126.289,32.758c0,2.331-1.006,4.218-3.355,4.218
			c-2.349,0-3.365-1.887-3.365-4.218v-7.969h-4.283l-0.002,7.969c0,4.606,2.982,8.341,7.626,8.341c4.64,0,7.668-3.734,7.668-8.341
			l0.002-7.977h-4.295L126.289,32.758z M159.113,24.479c-4.672,0-8.461,3.761-8.461,8.396c0,3.85,2.609,7.088,6.164,8.083
			c3.973,0.96,5.762-2.102,6.088-2.906c0.033-0.083,0.063-0.174,0.203-0.173c0.154,0.002,0.16,0.173,0.16,0.173l0.004,2.627h4.304
			v-7.805C167.575,28.24,163.787,24.479,159.113,24.479z M159.111,37.127c-2.366,0-4.283-1.902-4.283-4.251
			c0-2.347,1.917-4.25,4.283-4.25c2.363,0,4.281,1.903,4.281,4.25C163.393,35.224,161.477,37.127,159.111,37.127z M105.686,27.592
			c-0.049,0.097-0.049,0.15-0.213,0.146c-0.135-0.003-0.15-0.146-0.15-0.146l-0.456-2.779h-3.829v15.859h4.291v-8.584
			c0-0.7,1.904-4.064,5.592-3.198c1.865,0.438,2.655,1.223,2.655,1.223s0-3.062,0-4.832c-0.688-0.357-1.163-0.53-1.784-0.672
			C108.105,23.764,105.781,27.397,105.686,27.592z M87.947,19.913h-5.238v20.734h4.882c6.414,0,11.511-1.244,11.511-10.367
			C99.102,21.068,94.29,19.913,87.947,19.913z M88.803,37.094l-1.771-0.046V23.507h1.726c3.955,0,6.022,0.553,6.022,6.772
			C94.779,36.766,92.438,37.094,88.803,37.094z"/>
	</g>
</g>
<g>
	<path fill="#414A4C" d="M41.126,8.302l-3.524,16.649h0.45c6,0,10.8-6.524,10.8-12.149c0-4.275-2.775-8.1-9.9-8.1
		c-8.774,0-18.749,5.85-18.749,18.224c0,3.825,0.975,4.425,1.05,5.1c-4.95,0-8.024-1.875-8.024-6.9
		c0-10.35,13.049-19.874,27.224-19.874c11.024,0,15.975,5.774,15.975,11.924c0,4.425-2.625,9.15-7.5,11.925
		c6.375,1.275,8.85,6.449,8.85,12.074c0,7.2-3.9,21.6-16.424,21.6c-3.225,0-7.425-0.976-7.425-5.55c0-1.2,0.3-2.625,0.975-4.351
		c1.875,1.95,3.3,2.7,5.025,2.7c5.475,0,7.425-7.8,7.425-13.499c0-5.25-1.65-9.525-7.125-9.525c-0.6,0-2.1,0.075-3.45,0.225
		L30.626,57.5H19.827l10.2-47.698L41.126,8.302z"/>
	<path fill="#414A4C" d="M75.926,51.65c5.925,0,9.524-3.3,13.274-7.575h2.55c-4.275,6.9-10.649,13.875-20.624,13.875
		c-7.05,0-11.7-3.45-11.7-11.925c0-8.625,4.875-26.699,20.25-26.699c6.674,0,8.25,3.45,8.25,7.2c0,8.624-8.25,15.299-17.25,15.824
		c-0.075,1.05-0.15,2.1-0.15,3C70.526,50.45,72.326,51.65,75.926,51.65z M80.276,23.301c-3.825,0-7.5,8.025-9,15.45
		c5.775-0.375,10.875-6.149,10.875-12.375C82.151,24.501,81.701,23.301,80.276,23.301z"/>
	<path fill="#414A4C" d="M108.025,26.526c-2.926,0-5.25,4.575-5.7,6.6L97.15,57.5h-10.8L97.226,6.502l11.1-1.5l-4.05,18.899
		c3.149-3.6,6.449-4.2,8.774-4.2c4.8,0,8.324,2.475,8.324,8.475c0,6.075-3.6,15.149-3.6,19.349c0,1.875,0.75,3.149,3,3.149
		c3.3,0,4.649-2.699,6.3-6.6h3.149c-4.199,12.3-9.975,13.875-13.949,13.875c-6.524,0-8.85-4.2-8.85-8.475
		c0-5.1,3.375-14.325,3.375-19.125C110.8,27.876,109.899,26.526,108.025,26.526z"/>
	<path fill="#414A4C" d="M163.074,20.001l-5.4,25.499c-0.225,0.976-0.3,1.726-0.3,2.4c0,2.1,0.975,3.225,3.075,3.225
		c2.925,0,4.949-3.3,6.074-7.05h3.15C165.398,56.3,158.648,57.95,154.599,57.95c-4.199,0-6.899-2.4-7.35-6.9
		c-2.324,3.45-5.85,6.9-11.174,6.9c-5.101,0-9.975-3.15-9.975-12.075c0-10.124,6.225-26.249,19.273-26.249
		c4.275,0,6.075,1.65,6.075,3.825v0.525l0.825-3.975H163.074z M137.2,44.825c0,5.775,2.399,5.85,3.749,5.85
		c2.176,0,5.325-2.249,6.226-6.6l3.6-16.949c0-0.9-0.675-2.85-3.075-2.85C141.324,24.276,137.2,37.775,137.2,44.825z"/>
	<path fill="#414A4C" d="M177.324,45.5c-0.226,0.9-0.375,1.801-0.375,2.625c0,1.575,0.6,2.7,2.625,2.7c0.524,0,1.35,0,1.949-0.225
		c-2.1,6.449-5.399,7.35-7.949,7.35c-5.25,0-7.5-3.675-7.5-8.475c0-1.275,0.15-2.625,0.45-3.976l4.8-22.499h-2.475l0.6-3h2.475
		l2.25-10.35l11.1-1.5c0,0-1.125,5.1-2.55,11.85h4.5l-0.6,3h-4.5L177.324,45.5z"/>
</g>
</svg>
