<?xml version="1.0" encoding="utf-8"?>
<!-- Generator: Adobe Illustrator 16.0.0, SVG Export Plug-In . SVG Version: 6.00 Build 0)  -->
<svg version="1.2" baseProfile="tiny" xmlns="http://www.w3.org/2000/svg" xmlns:xlink="http://www.w3.org/1999/xlink" x="0px"
	 y="0px" width="200px" height="60.015px" viewBox="0 0 200 60.015" xml:space="preserve">
<g id="Calque_1" display="none">
	<g display="inline">
		<path fill="#414A4C" d="M109.319,21.81c-0.006,0-0.01,0.003-0.016,0.003c-0.633,0-1.244,0.434-1.514,1.016l-4.126,12.364h-0.065
			l-4.039-12.357c-0.265-0.586-0.879-1.021-1.517-1.021c-0.006,0-0.006-0.003-0.014-0.003h-2.094l5.524,15.095
			c0.19,0.541,0.573,1.364,0.573,1.714c0,0.316-0.893,3.991-3.574,3.991c-0.069,0-0.132-0.005-0.2-0.008
			c-0.685-0.036-1.203,0.436-1.317,1.169l-0.08,1.032c0.542,0.095,1.088,0.222,2.045,0.222c3.958,0,5.136-3.586,6.259-6.691
			l6.001-16.522h-1.847V21.81z M131.305,21.43c-1.467,0-3.924,0.826-5.039,3.141c-0.863-2.19-2.749-3.141-4.629-3.141
			c-2.394,0-4.022,0.855-5.174,2.728h-0.061V23.15c-0.011-0.74-0.612-1.338-1.359-1.338c-0.007,0-0.01-0.003-0.016-0.003h-1.438
			v16.174h1.628c0.001,0,0.001-0.002,0.003-0.002c0.752,0,1.36-0.604,1.36-1.354c0-0.018,0.008-0.027,0.013-0.041v-6.753
			c0-3.014,1.216-5.995,4.276-5.995c2.427,0,2.906,2.506,2.906,4.503v9.642h1.646c0.002,0,0.002-0.002,0.006-0.002
			c0.71,0,1.283-0.543,1.349-1.229v-6.919c0-3.014,1.213-5.995,4.278-5.995c2.424,0,2.902,2.506,2.902,4.503v9.642h1.674
			c0.002,0,0.002-0.002,0.003-0.002c0.649,0,1.188-0.452,1.326-1.054v-9.314C136.96,24.094,135.461,21.43,131.305,21.43z M30.005,0
			C13.434,0,0,13.436,0,30.008c0,16.571,13.434,30.007,30.005,30.007c16.571,0,30.005-13.436,30.005-30.007
			C60.011,13.436,46.577,0,30.005,0z M46.188,17.369c-1.389,0.049-2.348-0.781-2.393-2.042c-0.014-0.463,0.105-0.866,0.423-1.34
			c0.309-0.605,0.375-0.676,0.367-0.94c-0.028-0.794-1.228-0.824-1.556-0.81c-4.504,0.149-5.692,6.229-6.653,11.172l-0.471,2.606
			c2.593,0.38,4.435-0.088,5.462-0.753c1.445-0.938-0.405-1.902-0.173-2.971c0.238-1.089,1.227-1.613,2.013-1.635
			c1.102-0.028,1.888,1.114,1.863,2.273c-0.039,1.917-2.582,4.55-7.667,4.442c-0.62-0.015-1.189-0.059-1.721-0.124l-0.96,5.298
			c-0.858,4.009-2,9.488-6.082,14.269c-3.508,4.173-7.067,4.819-8.662,4.873c-2.982,0.104-4.959-1.489-5.03-3.61
			c-0.068-2.057,1.749-3.18,2.942-3.217c1.59-0.053,2.692,1.101,2.734,2.43c0.041,1.124-0.546,1.476-0.935,1.688
			c-0.26,0.209-0.65,0.422-0.635,0.885c0.008,0.198,0.221,0.652,0.882,0.633c1.261-0.045,2.099-0.667,2.685-1.085
			c2.905-2.42,4.023-6.639,5.487-14.318l0.307-1.861c0.5-2.498,1.053-5.281,1.897-8.057c-2.048-1.542-3.275-3.453-6.029-4.2
			c-1.888-0.514-3.04-0.077-3.848,0.946c-0.959,1.212-0.64,2.789,0.286,3.714l1.53,1.691c1.875,2.168,2.9,3.854,2.514,6.121
			c-0.612,3.623-4.926,6.4-10.026,4.833c-4.353-1.342-5.167-4.424-4.645-6.123c0.461-1.494,1.648-1.776,2.81-1.422
			c1.243,0.386,1.73,1.897,1.375,3.057c-0.04,0.124-0.104,0.334-0.234,0.61c-0.145,0.319-0.412,0.601-0.527,0.973
			c-0.28,0.913,0.969,1.561,1.84,1.828c1.948,0.602,3.849-0.417,4.331-1.994c0.447-1.45-0.469-2.461-0.848-2.849l-1.845-1.975
			c-0.844-0.94-2.699-3.561-1.795-6.502c0.349-1.134,1.085-2.338,2.152-3.135c2.252-1.679,4.702-1.955,7.033-1.283
			c3.017,0.867,4.467,2.863,6.347,4.403c1.052-3.085,2.511-6.106,4.704-8.656c1.98-2.322,4.641-4.005,7.689-4.108
			c3.045-0.102,5.348,1.279,5.424,3.465C48.58,15.5,48.045,17.308,46.188,17.369z M90.24,25.096
			c-2.478-1.26-5.189-2.115-5.237-4.649c0.007-2.692,2.498-3.398,4.416-3.396c0.009-0.001,0.016-0.001,0.021-0.001
			c0.834,0,1.499,0.083,2.151,0.224c0.009,0,0.007-0.01,0.018-0.01c0.688,0.049,1.264-0.484,1.346-1.157l0.055-0.979
			c-1.258-0.309-2.574-0.468-3.716-0.468c-4.173,0.025-7.271,2.11-7.28,6.089c0.005,3.479,2.367,4.827,4.905,6.048
			c2.488,1.19,5.216,2.172,5.241,5.04c-0.016,2.997-2.925,4.106-4.93,4.108c-1.173-0.002-2.447-0.295-3.521-0.636
			c-0.671-0.109-1.222,0.482-1.308,1.263l-0.092,0.871c1.475,0.476,2.988,0.886,4.506,0.886c0,0,0.001,0,0.005,0h0.014
			c4.673-0.034,8.305-1.884,8.318-6.693C95.146,27.93,92.767,26.372,90.24,25.096z M141.98,20.525v1.282h-3.83v1.258
			c0.098,0.65,0.656,1.15,1.342,1.15c0.003,0,0.007,0.003,0.011,0.003h2.478v13.764h1.653c0.004,0,0.002-0.002,0.006-0.002
			c0.686,0,1.25-0.511,1.342-1.168V24.219h3c0.709-0.021,1.276-0.582,1.311-1.283V21.81h-4.311v-1.539
			c0-2.188,0.32-3.837,2.902-3.837c0.05,0,0.1,0.003,0.148,0.005c0.008,0,0.006-0.008,0.013-0.008
			c0.718,0.054,1.312-0.529,1.353-1.241l0.053-0.976c-0.605-0.096-1.248-0.191-2.01-0.191C143,14.022,141.98,16.591,141.98,20.525z
			 M177.261,21.43c-2.262,0-4.434,1.11-5.327,2.951h-0.063v-1.209c0-0.001-0.003-0.001-0.003-0.005c0-0.748-0.611-1.354-1.361-1.354
			c-0.007,0-0.01-0.004-0.016-0.004h-1.53v16.175h1.652c0,0,0-0.002,0.005-0.002c0.711,0,1.291-0.55,1.346-1.246v-6.237
			c0-3.93,1.537-6.659,4.95-6.659c2.618,0.159,3.448,1.997,3.448,5.771v8.372H182v0.001c0.004,0,0.004-0.002,0.008-0.002
			c0.731,0,1.319-0.574,1.352-1.289v-8.316C183.36,24.031,181.478,21.43,177.261,21.43z M158.002,21.43
			c-4.982,0-8.301,3.552-8.301,8.467c0,4.63,3.388,8.467,8.301,8.467c4.883,0,8.268-3.838,8.268-8.467
			C166.27,24.981,162.952,21.43,158.002,21.43z M158.002,35.955c-3.544,0-5.107-3.172-5.107-6.059c0-3.076,1.884-6.057,5.107-6.057
			c3.19,0,5.075,2.98,5.075,6.057C163.078,32.783,161.51,35.955,158.002,35.955z M198.157,21.812V21.81
			c-0.006,0-0.009,0.003-0.015,0.003c-0.632,0-1.248,0.434-1.513,1.016l-4.127,12.364h-0.07l-4.037-12.357
			c-0.262-0.586-0.879-1.021-1.514-1.021c-0.006,0-0.01-0.003-0.016-0.003h-2.093l5.522,15.095c0.191,0.541,0.576,1.364,0.576,1.714
			c0,0.316-0.895,3.991-3.578,3.991c-0.064,0-0.133-0.005-0.199-0.008c-0.682-0.036-1.199,0.436-1.314,1.169l-0.082,1.032
			c0.543,0.095,1.086,0.222,2.045,0.222c3.959,0,5.141-3.586,6.258-6.691l6-16.522H198.157z"/>
	</g>
</g>
<g id="Calque_2" display="none">
	<g display="inline">
		<path fill="#414A4C" d="M120.547,18.953c-6.825,0-10.214,3.493-10.214,8.58c0,3.273,1.65,5.573,3.836,6.635
			c-1.07,0.972-1.962,1.814-2.765,2.653c-0.805,0.841-1.294,1.726-1.294,2.699c0,1.194,0.49,2.3,1.963,2.917
			c-1.562,1.462-2.455,2.521-2.455,4.513c0,3.493,3.079,5.528,11.152,5.528c7.762,0,12.266-2.874,12.266-7.961
			c0-5.88-4.549-6.103-12.266-6.589l-4.371-0.265l1.472-2.344c0.802,0.221,2.097,0.397,3.525,0.397c5.62,0,9.5-2.875,9.5-7.784
			c0-2.035-0.848-3.45-1.65-4.468l4.104-0.309v-3.759h-8.699C123.625,19.129,122.465,18.953,120.547,18.953z M122.554,44.075
			c2.143,0.133,3.838,0.221,3.838,1.638c0,2.385-3.524,2.565-6.111,2.565c-3.123,0-5.398-0.531-5.398-2.3
			c0-0.885,0.579-1.637,1.16-2.343L122.554,44.075z M120.817,31.071c-2.946,0-4.15-1.504-4.15-3.671
			c0-2.875,1.828-4.069,4.281-4.069c2.543,0,4.061,1.372,4.061,3.98C125.009,29.613,123.313,31.071,120.817,31.071z M141.199,15.427
			c2.587,0,4.059-1.46,4.059-3.982c0-2.52-1.472-3.892-4.059-3.892c-2.544,0-4.015,1.372-4.015,3.892
			C137.184,13.966,138.655,15.427,141.199,15.427z M145.168,37.32V18.966h-9.234l-0.491,3.581l2.409,0.841
			c0.448,0.131,0.581,0.442,0.581,0.927V37.32c0,0.665-0.089,0.796-0.713,0.886l-2.276,0.309v3.493h12.714v-3.493l-2.274-0.309
			C145.211,38.116,145.168,38.028,145.168,37.32z M164.592,36.399c-1.07,0.399-2.363,0.707-3.614,0.707
			c-2.407,0-3.032-1.017-3.032-3.626V22.91h6.646v-4.422h-6.289c-0.357,0-0.357-0.133-0.357-0.442v-6.282h-4.239
			c-0.49,4.821-2.051,6.768-5.977,7.21v3.937h3.123c0.358,0,0.358,0.177,0.358,0.442V34.94c0,5,2.006,7.12,7.314,7.12
			c2.544,0,5.354-0.84,7.272-1.768L164.592,36.399z M66.866,1.134c-1.507-1.509-3.954-1.509-5.462,0l-5.438,5.441l6.898,6.902
			c1.604-0.542,3.442-0.179,4.72,1.1c1.285,1.287,1.645,3.142,1.09,4.751l6.649,6.651c1.609-0.554,3.465-0.195,4.749,1.092
			c1.796,1.796,1.796,4.706,0,6.503s-4.705,1.797-6.502,0c-1.35-1.353-1.684-3.337-1-5.001l-6.201-6.204l0,16.325
			c0.438,0.217,0.851,0.506,1.216,0.869c1.795,1.796,1.795,4.706,0,6.504c-1.796,1.796-4.706,1.796-6.5,0
			c-1.795-1.798-1.795-4.708,0-6.504c0.444-0.443,0.957-0.778,1.505-1.003V22.084c-0.548-0.225-1.06-0.558-1.505-1.004
			c-1.36-1.359-1.688-3.356-0.99-5.027l-6.8-6.805L35.335,27.213c-1.509,1.511-1.509,3.958,0,5.468l26.19,26.199
			c1.508,1.51,3.954,1.51,5.463,0l26.067-26.078c1.509-1.51,1.509-3.958,0-5.467L66.866,1.134z"/>
	</g>
</g>
<g id="Calque_3">
	<g>
		<path fill="#414A4C" d="M176.739,20.687h1.219v3.289h0.894v-3.289h1.219v-0.745h-3.331V20.687z M54.008,11.243
			c-0.047-0.029-0.093-0.053-0.14-0.082c-2.67-1.677-5.293-2.466-7.87-4.006c-0.248-0.149-0.496-0.295-0.744-0.459
			c-1.774-1.209-4.234-4.088-6.295-6.563c0,0.002,0,0.004-0.001,0.006c-0.003-0.004-0.007-0.009-0.011-0.013
			c-0.121,1.201-0.317,2.171-0.562,2.999c-0.518,1.698-1.269,2.712-2.109,3.479c-0.101,0.087-0.2,0.177-0.305,0.257
			c-2.919,2.303-4.75,2.994-7.268,4.376c-0.217,0.118-0.537,0.3-0.929,0.54c-1.523,0.921-4.179,2.79-6.671,5.746
			c-3.141,3.713-6.018,9.141-6.018,16.569c0,0.897,0.06,1.776,0.147,2.643c0.006,0.057,0.011,0.114,0.018,0.17
			c0.044,0.411,0.097,0.818,0.161,1.222c0.007,0.042,0.015,0.084,0.021,0.126c0.205,1.256,0.498,2.476,0.876,3.653
			c0.012,0.038,0.023,0.077,0.036,0.115c0.117,0.357,0.243,0.709,0.375,1.059c0.034,0.09,0.069,0.18,0.104,0.27
			c0.134,0.342,0.271,0.681,0.419,1.015c0.021,0.049,0.045,0.096,0.066,0.144c0.368,0.818,0.767,1.617,1.215,2.383
			c0.11,0.189,0.234,0.369,0.35,0.554c0.101,0.163,0.203,0.326,0.307,0.486c0.159,0.244,0.32,0.486,0.487,0.724
			c0.124,0.177,0.253,0.35,0.382,0.523c0.258,0.349,0.524,0.691,0.8,1.026c0.172,0.209,0.343,0.419,0.521,0.623
			c0.166,0.189,0.336,0.372,0.507,0.556c0.176,0.189,0.354,0.376,0.535,0.56c0.167,0.169,0.333,0.338,0.504,0.503
			c0.252,0.242,0.51,0.478,0.771,0.709c0.188,0.167,0.377,0.331,0.57,0.492c0.276,0.232,0.556,0.459,0.841,0.68
			c0.156,0.121,0.315,0.238,0.475,0.355c0.269,0.198,0.542,0.391,0.818,0.579c0.142,0.097,0.283,0.196,0.427,0.29
			c0.412,0.269,0.829,0.528,1.255,0.773c0.084,0.049,0.171,0.093,0.256,0.141c0.368,0.207,0.741,0.405,1.119,0.594
			c0.129,0.065,0.259,0.128,0.389,0.19c0.389,0.188,0.782,0.365,1.18,0.534c0.077,0.032,0.152,0.067,0.229,0.099
			c0.493,0.203,0.992,0.392,1.497,0.565c0.053,0.018,0.107,0.034,0.161,0.052c0.458,0.154,0.92,0.294,1.387,0.424
			c0.085,0.023,0.17,0.047,0.255,0.07c1.062,0.283,2.144,0.501,3.243,0.65c0.022,0.003,0.045,0.005,0.067,0.009
			c0.541,0.072,1.086,0.126,1.634,0.164c0.03,0.002,0.059,0.005,0.088,0.007c0.574,0.038,1.15,0.064,1.729,0.064
			c13.789,0,25.749-10.075,25.749-25.331C67.055,19.302,55.84,12.394,54.008,11.243z M54.339,54.472
			c-0.286,0.288-2.918,2.13-6.008,2.417c-3.09,0.288-7.268,0.461-9.785-1.842c-0.4-0.403-0.286-0.979,0-1.209
			s0.516-0.403,0.858-0.403c0.344,0,0.286,0,0.458,0.116c1.145,0.921,2.86,1.669,6.523,1.669c3.661,0,6.237-1.036,7.381-1.9
			c0.515-0.402,0.744-0.058,0.802,0.173C54.625,53.723,54.74,54.068,54.339,54.472z M44.325,49.233
			c0.629-0.576,1.659-1.498,2.632-1.9c0.973-0.403,1.488-0.345,2.404-0.345c0.915,0,1.888,0.058,2.574,0.518
			c0.688,0.461,1.087,1.497,1.316,2.072c0.229,0.576,0,0.921-0.458,1.151c-0.4,0.231-0.458,0.116-0.858-0.633
			s-0.744-1.497-2.746-1.497c-2.003,0-2.632,0.691-3.605,1.497c-0.973,0.806-1.315,1.094-1.659,0.633
			C43.581,50.269,43.695,49.809,44.325,49.233z M65.269,40.021c0,1.785-0.573,5.008-1.945,7.024
			c-1.374,2.015-2.231,2.763-3.835,2.647c-2.06-0.172-6.18-6.621-8.811-6.735c-3.319-0.115-10.529,6.966-16.194,6.966
			c-3.434,0-4.464-0.519-5.608-1.267c-1.716-1.209-2.574-3.051-2.517-5.584c0.057-4.491,4.234-8.693,9.498-8.75
			c6.694-0.058,11.33,6.678,14.706,6.62c2.861-0.058,8.354-5.699,11.043-5.699C64.467,35.243,65.269,38.237,65.269,40.021z
			 M140.559,24.479c-4.672,0-8.46,3.761-8.46,8.397c0,0,0,11.478,0,13.02h4.303v-5.707c0.001,0,0.002,0.001,0.002,0.002l0.001-2.138
			c0,0,0.007-0.171,0.161-0.173c0.139-0.001,0.17,0.09,0.204,0.173c0.325,0.804,2.114,3.866,6.087,2.906
			c3.555-0.995,6.163-4.234,6.163-8.083C149.02,28.24,145.231,24.479,140.559,24.479z M140.562,37.127
			c-2.365,0-4.282-1.903-4.282-4.251c0-2.347,1.917-4.25,4.282-4.25c2.366,0,4.282,1.903,4.282,4.25
			C144.845,35.224,142.929,37.127,140.562,37.127z M169.31,40.686h4.274V19.921h-4.274V40.686z M183.656,19.941l-0.899,2.773h-0.011
			l-0.951-2.773h-1.258v4.034h0.837v-2.831h0.011l0.997,2.831h0.688l0.996-2.859h0.012v2.859h0.837v-4.034H183.656z M159.114,24.479
			c-4.673,0-8.461,3.761-8.461,8.397c0,3.849,2.608,7.088,6.164,8.083c3.972,0.96,5.761-2.102,6.087-2.906
			c0.033-0.083,0.064-0.174,0.203-0.173c0.154,0.002,0.161,0.173,0.161,0.173l0.003,2.626h4.304v-7.804
			C167.575,28.24,163.787,24.479,159.114,24.479z M159.111,37.127c-2.366,0-4.283-1.903-4.283-4.251c0-2.347,1.917-4.25,4.283-4.25
			c2.364,0,4.281,1.903,4.281,4.25C163.393,35.224,161.476,37.127,159.111,37.127z M126.289,32.758c0,2.331-1.006,4.217-3.355,4.217
			s-3.366-1.886-3.366-4.217v-7.969h-4.283l-0.002,7.969c0,4.606,2.983,8.34,7.626,8.34c4.64,0,7.668-3.734,7.668-8.34l0.002-7.977
			h-4.295L126.289,32.758z M105.685,27.592c-0.048,0.096-0.049,0.15-0.212,0.146c-0.135-0.003-0.151-0.146-0.151-0.146l-0.456-2.78
			h-3.829v15.86h4.291v-8.584c0-0.701,1.904-4.065,5.592-3.199c1.865,0.438,2.655,1.223,2.655,1.223s0-3.061,0-4.832
			c-0.688-0.357-1.163-0.53-1.784-0.672C108.105,23.764,105.781,27.397,105.685,27.592z M87.947,19.913h-5.238v20.734h4.882
			c6.414,0,11.511-1.244,11.511-10.367C99.102,21.068,94.29,19.913,87.947,19.913z M88.803,37.095l-1.771-0.046V23.507h1.726
			c3.955,0,6.022,0.552,6.022,6.772C94.779,36.766,92.438,37.095,88.803,37.095z"/>
	</g>
</g>
<g id="Calque_4" display="none">
	<g display="inline">
		<path fill="#414A4C" d="M35.577,26.011v-0.144c0.672-0.168,1.261-0.433,1.765-0.792c0.504-0.36,0.911-0.769,1.224-1.225
			c0.312-0.455,0.546-0.947,0.702-1.476c0.156-0.527,0.234-1.056,0.234-1.584c0-1.128-0.223-2.063-0.666-2.809
			c-0.445-0.743-1.057-1.343-1.836-1.8c-0.78-0.455-1.692-0.773-2.736-0.954c-1.044-0.18-2.178-0.27-3.402-0.27h-8.028v23.472h8.712
			c1.272,0,2.46-0.138,3.564-0.414c1.104-0.275,2.07-0.695,2.898-1.26c0.828-0.563,1.476-1.278,1.943-2.142
			c0.469-0.864,0.702-1.896,0.702-3.097c0-1.584-0.427-2.819-1.278-3.708C38.523,26.924,37.257,26.324,35.577,26.011z
			 M28.125,19.063h2.521c1.247,0,2.172,0.192,2.772,0.576c0.6,0.385,0.899,1.021,0.899,1.908c0,0.889-0.294,1.591-0.882,2.106
			c-0.589,0.516-1.53,0.773-2.826,0.773h-2.484V19.063z M31.113,34.328h-2.988v-6.156h2.988c1.464,0,2.557,0.234,3.276,0.702
			s1.08,1.219,1.08,2.25C35.47,33.26,34.018,34.328,31.113,34.328z M57.851,22.591c-0.805-0.792-1.728-1.397-2.772-1.817
			c-1.044-0.42-2.13-0.631-3.258-0.631s-2.22,0.211-3.275,0.631c-1.057,0.42-1.986,1.025-2.79,1.817
			c-0.805,0.792-1.446,1.771-1.927,2.935s-0.72,2.49-0.72,3.978c0,1.488,0.239,2.814,0.72,3.978c0.48,1.165,1.122,2.143,1.927,2.935
			c0.804,0.792,1.733,1.398,2.79,1.818c1.056,0.419,2.147,0.63,3.275,0.63s2.214-0.211,3.258-0.63
			c1.045-0.42,1.968-1.026,2.772-1.818c0.804-0.792,1.445-1.77,1.926-2.935c0.479-1.163,0.72-2.489,0.72-3.978
			c0-1.487-0.24-2.813-0.72-3.978C59.296,24.362,58.654,23.383,57.851,22.591z M54.269,33.211c-0.553,0.912-1.368,1.368-2.448,1.368
			c-1.104,0-1.926-0.456-2.466-1.368s-0.81-2.147-0.81-3.708c0-1.56,0.27-2.796,0.81-3.708s1.362-1.368,2.466-1.368
			c1.08,0,1.896,0.456,2.448,1.368c0.552,0.912,0.828,2.148,0.828,3.708C55.097,31.064,54.82,32.299,54.269,33.211z M77.582,22.591
			c-0.805-0.792-1.729-1.397-2.772-1.817s-2.13-0.631-3.258-0.631s-2.22,0.211-3.276,0.631c-1.056,0.42-1.985,1.025-2.789,1.817
			c-0.805,0.792-1.446,1.771-1.927,2.935s-0.72,2.49-0.72,3.978c0,1.488,0.239,2.814,0.72,3.978c0.48,1.165,1.122,2.143,1.927,2.935
			c0.804,0.792,1.733,1.398,2.789,1.818c1.057,0.419,2.148,0.63,3.276,0.63s2.214-0.211,3.258-0.63
			c1.044-0.42,1.968-1.026,2.772-1.818c0.804-0.792,1.445-1.77,1.926-2.935c0.479-1.163,0.72-2.489,0.72-3.978
			c0-1.487-0.24-2.813-0.72-3.978C79.027,24.362,78.386,23.383,77.582,22.591z M74,33.211c-0.553,0.912-1.368,1.368-2.448,1.368
			c-1.104,0-1.926-0.456-2.466-1.368s-0.811-2.147-0.811-3.708c0-1.56,0.271-2.796,0.811-3.708s1.361-1.368,2.466-1.368
			c1.08,0,1.896,0.456,2.448,1.368c0.552,0.912,0.828,2.148,0.828,3.708C74.828,31.064,74.552,32.299,74,33.211z M92.68,34.616
			c-0.3,0.072-0.594,0.107-0.882,0.107c-0.696,0-1.254-0.222-1.674-0.666c-0.42-0.443-0.63-1.17-0.63-2.178v-7.164h4.284v-4.14
			h-4.284v-4.752h-4.393l-0.611,4.752l-2.736,0.216v3.924h2.448v7.236c0,1.032,0.113,1.975,0.342,2.826
			c0.228,0.852,0.588,1.578,1.08,2.178c0.491,0.601,1.128,1.068,1.908,1.404c0.779,0.336,1.722,0.504,2.826,0.504
			c0.863,0,1.62-0.072,2.268-0.216c0.647-0.145,1.212-0.288,1.692-0.433l-0.828-3.852C93.25,34.459,92.979,34.543,92.68,34.616z
			 M108.538,29.503c-0.468-0.408-0.984-0.75-1.548-1.026c-0.564-0.275-1.135-0.521-1.711-0.737c-0.456-0.168-0.894-0.33-1.313-0.486
			c-0.42-0.155-0.792-0.317-1.116-0.486c-0.324-0.167-0.582-0.354-0.773-0.558c-0.192-0.204-0.288-0.45-0.288-0.738
			c0-0.936,0.671-1.403,2.016-1.403c0.624,0,1.248,0.132,1.872,0.396c0.624,0.265,1.26,0.637,1.908,1.116l2.376-3.168
			c-0.769-0.576-1.669-1.099-2.7-1.566c-1.032-0.468-2.232-0.702-3.6-0.702c-1.032,0-1.969,0.139-2.809,0.414
			c-0.84,0.276-1.561,0.654-2.16,1.135c-0.6,0.479-1.062,1.067-1.386,1.764c-0.323,0.696-0.485,1.452-0.485,2.268
			c0,0.744,0.144,1.398,0.432,1.962c0.288,0.564,0.66,1.057,1.116,1.477c0.455,0.42,0.959,0.773,1.512,1.062
			c0.552,0.288,1.104,0.54,1.656,0.757c0.455,0.191,0.899,0.365,1.332,0.521c0.432,0.156,0.821,0.33,1.17,0.521
			c0.348,0.192,0.624,0.402,0.827,0.631c0.204,0.228,0.307,0.485,0.307,0.773c0,0.48-0.18,0.853-0.54,1.116
			c-0.36,0.265-0.937,0.396-1.728,0.396c-0.769,0-1.525-0.156-2.269-0.469c-0.744-0.312-1.524-0.779-2.34-1.403l-2.376,3.312
			c0.912,0.744,1.985,1.345,3.222,1.8c1.236,0.456,2.442,0.685,3.618,0.685c1.2,0,2.256-0.15,3.168-0.45s1.68-0.708,2.305-1.225
			c0.623-0.516,1.091-1.121,1.403-1.817c0.312-0.696,0.468-1.452,0.468-2.269c0-0.815-0.144-1.518-0.432-2.105
			S109.006,29.912,108.538,29.503z M122.812,34.616c-0.3,0.072-0.594,0.107-0.882,0.107c-0.696,0-1.255-0.222-1.674-0.666
			c-0.421-0.443-0.63-1.17-0.63-2.178v-7.164h4.283v-4.14h-4.283v-4.752h-4.393l-0.612,4.752l-2.735,0.216v3.924h2.448v7.236
			c0,1.032,0.113,1.975,0.342,2.826c0.228,0.852,0.588,1.578,1.08,2.178c0.491,0.601,1.128,1.068,1.908,1.404
			c0.779,0.336,1.722,0.504,2.825,0.504c0.864,0,1.62-0.072,2.269-0.216c0.647-0.145,1.211-0.288,1.691-0.433l-0.828-3.852
			C123.381,34.459,123.111,34.543,122.812,34.616z M137.179,20.143c-0.912,0-1.824,0.288-2.735,0.864
			c-0.913,0.576-1.692,1.476-2.34,2.7h-0.145l-0.36-3.132h-4.319v17.855h5.292V28.063c0.479-1.224,1.085-2.075,1.817-2.556
			c0.732-0.479,1.435-0.72,2.106-0.72c0.384,0,0.72,0.024,1.008,0.072s0.6,0.12,0.937,0.216l0.863-4.572
			c-0.264-0.12-0.558-0.21-0.882-0.27S137.684,20.143,137.179,20.143z M148.973,20.143c-1.417,0-2.754,0.217-4.014,0.648
			c-1.261,0.432-2.467,0.996-3.619,1.691l1.873,3.492c0.863-0.504,1.68-0.899,2.447-1.188s1.536-0.432,2.305-0.432
			c0.959,0,1.655,0.233,2.088,0.701c0.432,0.469,0.672,1.099,0.72,1.891c-3.528,0.359-6.084,1.068-7.668,2.124
			s-2.376,2.52-2.376,4.392c0,0.769,0.126,1.477,0.378,2.124c0.252,0.648,0.605,1.219,1.062,1.71
			c0.456,0.492,1.009,0.876,1.656,1.152c0.648,0.275,1.38,0.414,2.196,0.414c1.008,0,1.938-0.211,2.79-0.63
			c0.852-0.42,1.661-0.966,2.43-1.639h0.108l0.396,1.836h4.32V28.208c0-2.76-0.606-4.794-1.818-6.103
			C153.034,20.797,151.276,20.143,148.973,20.143z M150.772,33.248c-0.48,0.48-0.937,0.853-1.368,1.116s-0.96,0.396-1.584,0.396
			s-1.122-0.138-1.494-0.414c-0.372-0.275-0.558-0.702-0.558-1.277c0-0.696,0.36-1.297,1.08-1.801s2.027-0.887,3.924-1.151V33.248z
			 M176.682,25.49c-0.324-1.116-0.787-2.07-1.386-2.862c-0.601-0.792-1.332-1.404-2.196-1.836s-1.836-0.648-2.916-0.648
			c-0.936,0-1.842,0.211-2.718,0.631c-0.877,0.42-1.663,0.941-2.358,1.565h-0.144l-0.36-1.764h-4.32v24.479h5.292v-5.22l-0.18-2.844
			c0.624,0.6,1.296,1.062,2.016,1.386c0.721,0.324,1.464,0.486,2.232,0.486c0.96,0,1.89-0.216,2.79-0.648
			c0.9-0.432,1.704-1.062,2.412-1.89c0.707-0.828,1.271-1.836,1.691-3.024c0.42-1.188,0.631-2.55,0.631-4.086
			C177.168,27.847,177.006,26.606,176.682,25.49z M170.76,33.301c-0.648,0.828-1.429,1.242-2.34,1.242
			c-0.457,0-0.925-0.084-1.404-0.252c-0.48-0.168-0.96-0.468-1.44-0.9v-7.308c1.009-1.08,2.028-1.62,3.061-1.62
			c2.063,0,3.096,1.608,3.096,4.824C171.731,31.136,171.407,32.473,170.76,33.301z"/>
	</g>
</g>
</svg>
