<?xml version="1.0" encoding="utf-8"?>
<!-- Generator: Adobe Illustrator 16.0.0, SVG Export Plug-In . SVG Version: 6.00 Build 0)  -->
<svg version="1.2" baseProfile="tiny" id="Calque_1"
	 xmlns="http://www.w3.org/2000/svg" xmlns:xlink="http://www.w3.org/1999/xlink" x="0px" y="0px" width="200px" height="80px"
	 viewBox="0 0 200 80" xml:space="preserve">
<g>
	<path fill="#9BB0B5" d="M26.697,21.895c0,0-0.128-0.449-0.276,0.138c-0.148,0.595-0.811,1.779-1.696,2.145s0.513,0.332,0.72,0.28
		c0.216-0.062,0.216,0.228-0.359,0.715c-0.574,0.479-2.103,1.49-3.123,0.823c0,0-0.662-0.326-0.672-1.333
		c-0.005-1.003-0.063-8.422-0.063-8.422h0.981c0,0,0.283,0.223,0.66-0.125c0.373-0.351,1.062-0.202,1.308-0.254
		c0.247-0.052,0.468-1.339-0.067-1.412c-0.53-0.077-1.039-0.222-1.113-0.264c-0.073-0.044-0.478-0.268-0.765-0.13h-1.071v-0.67
		c0.498-0.331,0.825-0.899,0.825-1.54c0-1.026-0.84-1.863-1.879-1.863c-1.038,0-1.878,0.836-1.878,1.863
		c0,0.707,0.397,1.327,0.983,1.641v0.569l-1.042-0.004c-0.291-0.138-0.716,0.09-0.792,0.134c-0.074,0.042-0.586,0.187-1.116,0.264
		c-0.532,0.073-0.311,1.36-0.069,1.412c0.247,0.053,0.938-0.097,1.313,0.254c0.372,0.347,0.66,0.125,0.66,0.125h0.979
		c0,0-0.059,7.419-0.064,8.422c-0.006,1.007-0.668,1.333-0.668,1.333c-1.024,0.667-2.552-0.344-3.126-0.823
		c-0.578-0.487-0.578-0.777-0.362-0.715c0.212,0.052,1.608,0.085,0.724-0.28c-0.889-0.365-1.548-1.55-1.694-2.145
		c-0.151-0.587-0.28-0.138-0.28-0.138c-0.422,1.011-0.387,2.215-0.1,3.208c0.291,0.992,0.459,0.434,0.555,0.162
		c0.101-0.279,0.183-0.186,0.183-0.186c0.279,1.016,1.999,2.554,3.47,3.124c1.468,0.567,2.404,1.814,2.404,1.814
		s0.938-1.247,2.404-1.814c1.469-0.57,3.193-2.108,3.471-3.124c0,0,0.082-0.094,0.183,0.186c0.1,0.271,0.262,0.83,0.555-0.162
		C27.086,24.109,27.122,22.905,26.697,21.895z M20.801,12.477c-0.168-0.139-0.38-0.22-0.616-0.22c-0.272,0-0.521,0.115-0.696,0.295
		c-0.205-0.172-0.33-0.423-0.33-0.707c0-0.516,0.424-0.938,0.946-0.938c0.519,0,0.947,0.422,0.947,0.938
		C21.052,12.09,20.955,12.308,20.801,12.477z"/>
</g>
<g>
	<path fill-rule="evenodd" fill="#9BB0B5" d="M67.646,16.558c-0.021,0.025-0.761,2.593-1.896,1.32
		c-0.713-1.261-1.474-1.541-1.474-1.541c-4.461,1.797-8.421,0-8.421,0s-0.221,0.173-0.529,0.479
		c-0.607-0.304-1.594-0.547-3.05-0.259c-0.986,0.195-2.526,2.138-2.526,3.741c0,3.965,3.789,2.899,5.053,4.621
		c0.017,0.023,0.029,0.025,0.041,0.028c1.281,1.422,2.907,1.952,2.907,1.952h4.211c0,0,4.632-0.995,4.632-5.941
		c2.716-0.72,1.524-3.501,3.158-4.181C69.265,16.777,68.426,16.883,67.646,16.558z M53.451,22.153
		c-0.862,0.911-3.06-0.31-2.859-1.855c0.203-1.571,1.881-4.311,3.897-2.506c-0.595,0.812-1.16,1.909-1.16,3.167
		C53.329,21.387,53.379,21.779,53.451,22.153z M64.066,16.117c0,0-1.111-0.908-3.347-1.067c0.243-0.202,0.409-0.499,0.409-0.849
		c0-0.608-0.472-1.101-1.053-1.101c-0.581,0-1.053,0.493-1.053,1.101c0,0.349,0.166,0.646,0.408,0.848
		c-2.247,0.156-3.365,1.068-3.365,1.068C57.25,17.173,63.027,17.154,64.066,16.117z"/>
</g>
<g>
	<path fill-rule="evenodd" fill="#9BB0B5" d="M109.6,20.9c-3.074,0-4.949-4.5-7.5-4.5l-0.007,0.014
		c-0.049-0.002-0.094-0.014-0.143-0.014c-0.787,0-1.482,0.364-1.95,0.925c-0.468-0.561-1.163-0.925-1.95-0.925
		c-0.049,0-0.095,0.012-0.143,0.015L97.9,16.4c-2.55,0-4.425,4.5-7.5,4.5c-1.4,0-2.4-1.2-2.4-1.2s1.45,3.899,5.4,3.899
		c3.95,0,5.7-2.024,6.6-3l-0.008-0.016c0.003-0.003,0.005-0.006,0.008-0.009l0.008,0.009L100,20.6c0.9,0.976,2.65,3,6.6,3
		c3.95,0,5.4-3.899,5.4-3.899S111,20.9,109.6,20.9z"/>
</g>
<g>
	<path fill-rule="evenodd" fill="#9BB0B5" d="M146.545,20.728v-1.455h-1.454v-1.454h-1.454v-1.454h-1.455v1.454h-1.454h-1.455
		h-1.454v-1.454h-1.455v1.454h-1.454v1.454h-1.454v1.455H132v1.454v1.455v1.454v1.454h1.455v-1.454v-1.454v-1.455h1.454v1.455v1.454
		h1.454v-1.454h1.455h1.454h1.455h1.454h1.455v1.454h1.454v-1.454v-1.455h1.454v1.455v1.454v1.454H148v-1.454v-1.454v-1.455v-1.454
		H146.545z M139.272,20.728h-1.454h-1.455v-1.455h1.455h1.454V20.728z M143.637,20.728h-1.455h-1.454v-1.455h1.454h1.455V20.728z
		 M140.728,25.091v1.454h1.454h1.455v-1.454h-1.455H140.728z M137.818,26.545h1.454v-1.454h-1.454h-1.455v1.454H137.818z
		 M145.091,14.909h-1.454v1.455h1.454V14.909z M146.545,13.455h-1.454v1.454h1.454V13.455z M134.909,14.909v1.455h1.454v-1.455
		H134.909z M133.455,13.455v1.454h1.454v-1.454H133.455z"/>
</g>
<g>
	<path fill-rule="evenodd" fill="#9BB0B5" d="M180,10.5c-5.17,0-6.135,4.439-6.133,7.857c0.073,3.414,0.855,6.849,1.246,8.225
		c0.389,1.375,1.482,3.918,4.887,3.918s4.535-2.715,4.888-3.918c0.353-1.205,1.145-4.769,1.245-8.225
		C186.106,14.899,185.169,10.5,180,10.5z M182.521,14.411c0.532-0.234,1.867,2.082,0.735,2.367
		C182.195,17.023,182.186,14.574,182.521,14.411z M177.5,14.374c0.337,0.163,0.326,2.613-0.734,2.368
		C175.633,16.456,176.97,14.139,177.5,14.374z M175.236,18.355c0.44-0.896,2.633-0.605,2.633,0
		C177.869,18.96,174.932,19.001,175.236,18.355z M175.438,19.498c0.082-0.132,0.49,0,1.001,0.021
		c0.51,0.021,0.979-0.194,1.061-0.082c0.081,0.112-0.296,0.5-1.04,0.49C175.715,19.917,175.357,19.631,175.438,19.498z
		 M177.134,22.642c-0.021,0.439,0.02,1.567-0.164,1.837c-0.199,0.291-0.536-0.364-0.857-1.307c-0.317-0.944-0.381-2.18-0.163-2.246
		c0.077-0.083,0.235-0.051,0.516-0.026c0.281,0.026,0.402-0.046,0.606,0.189C177.224,21.228,177.122,22.29,177.134,22.642z
		 M178.97,28.18c0-0.16,2.061-0.186,2.061,0C180.822,28.499,179.137,28.496,178.97,28.18z M177.296,26.588
		c0-0.376,5.408-0.291,5.408,0C182.122,27.485,177.814,27.578,177.296,26.588z M183.908,23.206
		c-0.321,0.942-0.657,1.597-0.855,1.306c-0.185-0.27-0.144-1.397-0.164-1.836c0.01-0.352-0.092-1.414,0.062-1.55
		c0.203-0.235,0.324-0.164,0.605-0.189c0.28-0.025,0.438-0.057,0.516,0.026C184.289,21.027,184.225,22.262,183.908,23.206z
		 M183.562,19.961c-0.743,0.011-1.122-0.377-1.041-0.489c0.083-0.112,0.552,0.102,1.062,0.082c0.511-0.02,0.918-0.153,1-0.02
		C184.663,19.665,184.306,19.951,183.562,19.961z M182.153,18.39c0-0.605,2.19-0.896,2.631,0
		C185.09,19.037,182.153,18.995,182.153,18.39z"/>
</g>
<path fill="#9BB0B5" d="M26.499,55.97c-0.479,0.213-0.992,0.355-1.532,0.42c0.55-0.33,0.974-0.853,1.173-1.476
	c-0.516,0.306-1.086,0.526-1.693,0.647c-0.486-0.519-1.18-0.843-1.947-0.843c-1.473,0-2.667,1.194-2.667,2.667
	c0,0.209,0.022,0.413,0.069,0.607c-2.217-0.111-4.182-1.174-5.498-2.787c-0.229,0.395-0.36,0.852-0.36,1.341
	c0,0.927,0.472,1.742,1.187,2.22c-0.437-0.014-0.849-0.134-1.207-0.332c0,0.01,0,0.021,0,0.032c0,1.292,0.918,2.37,2.14,2.615
	c-0.224,0.061-0.459,0.094-0.703,0.094c-0.172,0-0.339-0.017-0.502-0.048c0.339,1.06,1.325,1.831,2.492,1.853
	c-0.913,0.715-2.063,1.142-3.312,1.142c-0.216,0-0.429-0.013-0.637-0.038c1.18,0.757,2.582,1.197,4.088,1.197
	c4.906,0,7.588-4.063,7.588-7.587c0-0.116-0.002-0.23-0.008-0.346C25.688,56.976,26.142,56.505,26.499,55.97z"/>
<g>
	<path fill="#9BB0B5" d="M61.271,60.812l5.201-4.698c0-0.867-0.84-0.884-0.84-0.884H54.368c-0.845,0-0.831,0.855-0.831,0.855
		l5.137,4.727C60.109,61.76,61.271,60.812,61.271,60.812z M63.863,59.583l1.779,4.327l-2.627-3.471l-1.617,1.353
		c-1.018,0.877-2.889-0.026-2.889-0.026l-1.625-1.305l-2.529,3.236l1.76-4.144L53.5,56.971v6.932c0,0.787,0.895,0.867,0.895,0.867
		h11.159c0.895,0,0.947-0.812,0.947-0.812v-6.987L63.863,59.583z"/>
</g>
<g>
	<path fill-rule="evenodd" fill="#9BB0B5" d="M99.783,68.381c-0.042,0-0.076,0.034-0.076,0.076v0.434
		c0,0.042,0.035,0.077,0.076,0.077h0.434c0.042,0,0.077-0.035,0.077-0.077v-0.434c0-0.042-0.035-0.076-0.077-0.076H99.783z
		 M100,67.896c-0.437,0-0.791,0.354-0.791,0.79s0.354,0.791,0.791,0.791s0.791-0.354,0.791-0.791S100.437,67.896,100,67.896z
		 M100.344,68.891c0,0.071-0.057,0.128-0.128,0.128h-0.434c-0.07,0-0.127-0.057-0.127-0.128v-0.434c0-0.07,0.057-0.127,0.127-0.127
		h0.434c0.071,0,0.128,0.057,0.128,0.127V68.891z M103.378,50h-6.756c-0.706,0-1.278,0.571-1.278,1.275v17.449
		c0,0.704,0.572,1.275,1.278,1.275h6.756c0.706,0,1.277-0.571,1.277-1.275V51.275C104.655,50.571,104.084,50,103.378,50z
		 M99.987,50.659c0.099,0,0.179,0.08,0.179,0.179c0,0.1-0.08,0.179-0.179,0.179c-0.098,0-0.178-0.079-0.178-0.179
		C99.809,50.739,99.889,50.659,99.987,50.659z M99.273,51.493h1.403c0.056,0,0.102,0.046,0.102,0.102
		c0,0.058-0.045,0.103-0.102,0.103h-1.403c-0.056,0-0.103-0.045-0.103-0.103C99.17,51.539,99.217,51.493,99.273,51.493z M100,69.58
		c-0.493,0-0.893-0.399-0.893-0.894c0-0.493,0.399-0.893,0.893-0.893s0.893,0.399,0.893,0.893
		C100.893,69.181,100.493,69.58,100,69.58z M104.068,67.245h-8.163V52.756h8.163V67.245z"/>
</g>
<g>
	<path fill-rule="evenodd" fill="#9BB0B5" d="M142.994,53.362h-5.988l-0.041-2.649c0,0-0.042-0.713-0.666-0.713
		c0,0-0.669,0.034-0.628,0.7c0,0,0.02,2.358-0.006,3.122c-0.388,0.363-0.656,0.881-0.656,1.453v12.728
		c0,1.103,0.894,1.997,1.997,1.997h5.988c1.104,0,1.997-0.895,1.997-1.997V55.358C144.991,54.256,144.098,53.362,142.994,53.362z
		 M138.336,68.669h-1.996v-1.331h1.996V68.669z M138.336,66.672h-1.996v-1.331h1.996V66.672z M138.336,64.676h-1.996v-1.331h1.996
		V64.676z M138.336,62.68h-1.996v-1.332h1.996V62.68z M140.998,68.669h-1.996v-1.331h1.996V68.669z M140.998,66.672h-1.996v-1.331
		h1.996V66.672z M140.998,64.676h-1.996v-1.331h1.996V64.676z M140.998,62.68h-1.996v-1.332h1.996V62.68z M143.66,68.669h-1.996
		v-1.331h1.996V68.669z M143.66,66.672h-1.996v-1.331h1.996V66.672z M143.66,64.676h-1.996v-1.331h1.996V64.676z M143.66,62.68
		h-1.996v-1.332h1.996V62.68z M143.66,59.353c0,0.367-0.298,0.664-0.666,0.664h-5.988c-0.368,0-0.666-0.297-0.666-0.664v-4.021
		c0-0.367,0.298-0.665,0.666-0.665h5.988c0.368,0,0.666,0.298,0.666,0.665V59.353z"/>
</g>
<g>
	<path fill-rule="evenodd" fill="#9BB0B5" d="M177.913,61.702h1.652v-0.007c-0.567-0.002-1.118-0.006-1.652-0.011
		C177.913,61.691,177.913,61.702,177.913,61.702z M186.578,61.98c-1.325-0.236-5.259-0.103-6.578,0.653
		c-1.322-0.753-5.252-0.887-6.577-0.649c-1.332,0.237-2.134,1.327-2.118,3.283c0,2.143,1.566,3.692,2.562,3.692
		c4.586,0.079,5.801-2.037,6.116-3.519c0.327,1.482,1.569,3.6,6.151,3.52c0.995,0,2.561-1.55,2.561-3.694
		C188.71,63.309,187.909,62.219,186.578,61.98z M174.35,67.354c-0.798,0-1.696-0.725-1.696-2.216c0-1.492,1.146-1.825,1.696-1.825
		h3.394c0.979,0,1.522,0.42,1.522,1.217S178.41,67.354,174.35,67.354z M185.652,67.354c-4.059,0-4.913-2.029-4.913-2.826
		c0-0.798,0.63-1.218,1.521-1.218h3.392c0.551,0,1.695,0.333,1.695,1.826S186.449,67.354,185.652,67.354z M179.565,51.05
		c-0.481,0.013-0.759,0.031-1.05,0.081c0.333-0.034,0.689-0.047,1.05-0.058V51.05z M189.999,61.441
		c-0.008-2.066-0.641-9.494-8.547-10.31c0.183,0.028,0.377,0.065,0.635,0.123v10.435c1.412-0.01,2.879-0.031,4.383-0.073l2.114,0.89
		l0.981,6.413h0.261l0.173-7.435H190L189.999,61.441L189.999,61.441z M178.516,51.131c-7.859,0.804-8.504,7.966-8.515,10.288H170
		v0.029c0,0.011,0,0.025,0,0.036h0.002l0.172,7.392h0.261l0.981-6.395l2.086-0.876c1.228,0.032,2.732,0.062,4.411,0.079V51.268
		C178.154,51.201,178.337,51.161,178.516,51.131z M180,51.05c-0.153,0-0.285,0.02-0.435,0.023v10.622c0.283,0.001,0.579,0,0.869,0
		V51.074C180.285,51.07,180.153,51.05,180,51.05z M180.435,51.037v0.037c0.349,0.01,0.694,0.023,1.018,0.058
		C181.135,51.081,180.863,51.061,180.435,51.037z M180.435,61.702h1.652c0,0,0-0.009,0-0.013c-0.562,0.004-1.112,0.006-1.652,0.006
		V61.702z"/>
</g>
</svg>
