<?xml version="1.0" encoding="utf-8"?>
<!-- Generator: Adobe Illustrator 16.0.0, SVG Export Plug-In . SVG Version: 6.00 Build 0)  -->
<!DOCTYPE svg PUBLIC "-//W3C//DTD SVG 1.1//EN" "http://www.w3.org/Graphics/SVG/1.1/DTD/svg11.dtd">
<svg version="1.1" id="Calque_1" xmlns="http://www.w3.org/2000/svg" xmlns:xlink="http://www.w3.org/1999/xlink" x="0px" y="0px"
	 width="240px" height="80px" viewBox="0 0 240 80" enable-background="new 0 0 240 80" xml:space="preserve">
<g>
	<path fill="#9BB0B5" d="M26.697,21.895c0,0-0.128-0.449-0.276,0.138c-0.148,0.595-0.811,1.779-1.696,2.145
		c-0.885,0.366,0.513,0.332,0.72,0.28c0.216-0.062,0.216,0.228-0.359,0.715c-0.574,0.479-2.103,1.49-3.123,0.823
		c0,0-0.662-0.326-0.672-1.333c-0.005-1.003-0.063-8.422-0.063-8.422h0.981c0,0,0.283,0.223,0.66-0.125
		c0.373-0.351,1.062-0.202,1.308-0.254c0.247-0.052,0.468-1.339-0.067-1.412c-0.53-0.077-1.039-0.222-1.113-0.264
		c-0.073-0.044-0.478-0.268-0.765-0.13h-1.071v-0.67c0.498-0.331,0.825-0.899,0.825-1.54c0-1.026-0.84-1.863-1.879-1.863
		c-1.038,0-1.878,0.836-1.878,1.863c0,0.707,0.397,1.327,0.983,1.641v0.569l-1.042-0.004c-0.291-0.138-0.716,0.09-0.792,0.134
		c-0.074,0.042-0.586,0.187-1.116,0.264c-0.532,0.073-0.311,1.36-0.069,1.412c0.247,0.053,0.938-0.097,1.313,0.254
		c0.372,0.347,0.66,0.125,0.66,0.125h0.979c0,0-0.059,7.419-0.064,8.422c-0.006,1.007-0.668,1.333-0.668,1.333
		c-1.024,0.667-2.552-0.344-3.126-0.823c-0.578-0.487-0.578-0.777-0.362-0.715c0.212,0.052,1.608,0.085,0.724-0.28
		c-0.889-0.365-1.548-1.55-1.694-2.145c-0.151-0.587-0.28-0.138-0.28-0.138c-0.422,1.011-0.387,2.215-0.1,3.208
		c0.291,0.992,0.459,0.434,0.555,0.162c0.101-0.279,0.183-0.186,0.183-0.186c0.279,1.016,1.999,2.554,3.47,3.124
		c1.468,0.567,2.404,1.814,2.404,1.814s0.938-1.247,2.404-1.814c1.469-0.57,3.193-2.108,3.471-3.124c0,0,0.082-0.094,0.183,0.186
		c0.1,0.271,0.262,0.83,0.555-0.162C27.086,24.109,27.122,22.905,26.697,21.895z M20.801,12.477c-0.168-0.139-0.38-0.22-0.616-0.22
		c-0.272,0-0.521,0.115-0.696,0.295c-0.205-0.172-0.33-0.423-0.33-0.707c0-0.516,0.424-0.938,0.946-0.938
		c0.519,0,0.947,0.422,0.947,0.938C21.052,12.09,20.955,12.308,20.801,12.477z"/>
</g>
<g>
	<path fill="#9BB0B5" d="M67.646,16.558c-0.021,0.025-0.761,2.593-1.896,1.32c-0.713-1.261-1.474-1.541-1.474-1.541
		c-4.461,1.797-8.421,0-8.421,0s-0.221,0.173-0.529,0.479c-0.607-0.304-1.594-0.547-3.05-0.259
		c-0.986,0.195-2.526,2.138-2.526,3.741c0,3.965,3.789,2.899,5.053,4.621c0.017,0.023,0.029,0.025,0.041,0.028
		c1.281,1.422,2.907,1.952,2.907,1.952h4.211c0,0,4.632-0.995,4.632-5.941c2.716-0.72,1.524-3.501,3.158-4.181
		C69.265,16.777,68.426,16.883,67.646,16.558z M53.451,22.153c-0.862,0.911-3.06-0.31-2.859-1.855
		c0.203-1.571,1.881-4.311,3.897-2.506c-0.595,0.812-1.16,1.909-1.16,3.167C53.329,21.387,53.379,21.779,53.451,22.153z
		 M64.066,16.117c0,0-1.111-0.908-3.347-1.067c0.243-0.202,0.409-0.499,0.409-0.849c0-0.608-0.472-1.101-1.053-1.101
		s-1.053,0.493-1.053,1.101c0,0.349,0.166,0.646,0.408,0.848c-2.247,0.156-3.365,1.068-3.365,1.068
		C57.25,17.173,63.027,17.154,64.066,16.117z"/>
</g>
<g>
	<path fill="#9BB0B5" d="M109.6,20.9c-3.074,0-4.949-4.5-7.5-4.5l-0.007,0.014c-0.049-0.002-0.094-0.014-0.143-0.014
		c-0.787,0-1.482,0.364-1.95,0.925c-0.468-0.561-1.163-0.925-1.95-0.925c-0.049,0-0.095,0.012-0.143,0.015L97.9,16.4
		c-2.55,0-4.425,4.5-7.5,4.5c-1.4,0-2.4-1.2-2.4-1.2s1.45,3.899,5.4,3.899c3.95,0,5.7-2.024,6.6-3l-0.008-0.016
		c0.003-0.003,0.005-0.006,0.008-0.009l0.008,0.009L100,20.6c0.9,0.976,2.65,3,6.6,3c3.95,0,5.4-3.899,5.4-3.899
		S111,20.9,109.6,20.9z"/>
</g>
<g>
	<path fill="#9BB0B5" d="M146.545,20.728v-1.455h-1.454v-1.454h-1.454v-1.454h-1.455v1.454h-1.453h-1.455h-1.455v-1.454h-1.454
		v1.454h-1.454v1.454h-1.454v1.455H132v1.454v1.455v1.454v1.454h1.455v-1.454v-1.454v-1.455h1.454v1.455v1.454h1.454v-1.454h1.455
		h1.453h1.455h1.455h1.454v1.454h1.454v-1.454v-1.455h1.454v1.455v1.454v1.454H148v-1.454v-1.454v-1.455v-1.454H146.545z
		 M139.271,20.728h-1.453h-1.455v-1.455h1.455h1.453V20.728z M143.637,20.728h-1.455h-1.453v-1.455h1.453h1.455V20.728z
		 M140.729,25.091v1.454h1.453h1.455v-1.454h-1.455H140.729z M137.818,26.545h1.453v-1.454h-1.453h-1.455v1.454H137.818z
		 M145.091,14.909h-1.454v1.455h1.454V14.909z M146.545,13.455h-1.454v1.454h1.454V13.455z M134.909,14.909v1.455h1.454v-1.455
		H134.909z M133.455,13.455v1.454h1.454v-1.454H133.455z"/>
</g>
<g>
	<path fill="#9BB0B5" d="M180,10.5c-5.17,0-6.135,4.439-6.133,7.857c0.072,3.414,0.855,6.849,1.246,8.225
		c0.389,1.375,1.482,3.918,4.887,3.918s4.535-2.715,4.889-3.918c0.353-1.205,1.145-4.769,1.244-8.225
		C186.105,14.899,185.169,10.5,180,10.5z M182.521,14.411c0.531-0.234,1.867,2.082,0.734,2.367
		C182.195,17.023,182.186,14.574,182.521,14.411z M177.5,14.374c0.337,0.163,0.326,2.613-0.734,2.368
		C175.633,16.456,176.971,14.139,177.5,14.374z M175.236,18.355c0.439-0.896,2.633-0.605,2.633,0S174.932,19.001,175.236,18.355z
		 M175.438,19.498c0.082-0.132,0.49,0,1.002,0.021c0.51,0.021,0.979-0.194,1.061-0.082c0.081,0.112-0.296,0.5-1.04,0.49
		C175.715,19.917,175.357,19.631,175.438,19.498z M177.134,22.642c-0.021,0.439,0.021,1.567-0.163,1.837
		c-0.199,0.291-0.537-0.364-0.857-1.307c-0.317-0.944-0.381-2.18-0.163-2.246c0.077-0.083,0.235-0.051,0.516-0.026
		c0.281,0.026,0.402-0.046,0.606,0.189C177.225,21.228,177.122,22.29,177.134,22.642z M178.971,28.18c0-0.16,2.061-0.186,2.061,0
		C180.822,28.499,179.137,28.496,178.971,28.18z M177.296,26.588c0-0.376,5.408-0.291,5.408,0
		C182.122,27.485,177.814,27.578,177.296,26.588z M183.908,23.206c-0.321,0.942-0.657,1.597-0.855,1.306
		c-0.185-0.27-0.144-1.397-0.164-1.836c0.01-0.352-0.092-1.414,0.062-1.55c0.203-0.235,0.324-0.164,0.605-0.189
		c0.279-0.025,0.438-0.057,0.516,0.026C184.289,21.027,184.225,22.262,183.908,23.206z M183.562,19.961
		c-0.744,0.011-1.123-0.377-1.041-0.489c0.082-0.112,0.552,0.102,1.062,0.082c0.511-0.02,0.918-0.153,1-0.02
		C184.663,19.665,184.307,19.951,183.562,19.961z M182.152,18.39c0-0.605,2.19-0.896,2.632,0
		C185.09,19.037,182.152,18.995,182.152,18.39z"/>
</g>
<path fill="#151819" d="M26.499,55.971c-0.479,0.213-0.992,0.354-1.532,0.42c0.55-0.33,0.974-0.854,1.173-1.477
	c-0.516,0.307-1.086,0.525-1.693,0.646c-0.486-0.519-1.18-0.843-1.947-0.843c-1.473,0-2.667,1.194-2.667,2.667
	c0,0.209,0.022,0.413,0.069,0.607c-2.217-0.111-4.182-1.174-5.498-2.787c-0.229,0.395-0.36,0.852-0.36,1.341
	c0,0.927,0.472,1.742,1.187,2.22c-0.437-0.014-0.849-0.134-1.207-0.332c0,0.01,0,0.021,0,0.032c0,1.292,0.918,2.37,2.14,2.615
	c-0.224,0.062-0.459,0.094-0.703,0.094c-0.172,0-0.339-0.017-0.502-0.048c0.339,1.061,1.325,1.831,2.492,1.854
	c-0.913,0.715-2.063,1.142-3.312,1.142c-0.216,0-0.429-0.013-0.637-0.038c1.18,0.757,2.582,1.197,4.088,1.197
	c4.906,0,7.588-4.063,7.588-7.588c0-0.115-0.002-0.229-0.008-0.346C25.688,56.977,26.142,56.505,26.499,55.971z"/>
<g>
	<path fill="#151819" d="M61.271,60.812l5.201-4.698c0-0.867-0.84-0.884-0.84-0.884H54.368c-0.845,0-0.831,0.854-0.831,0.854
		l5.137,4.728C60.109,61.76,61.271,60.812,61.271,60.812z M63.863,59.583l1.779,4.327l-2.627-3.471l-1.617,1.353
		c-1.018,0.877-2.889-0.026-2.889-0.026l-1.625-1.305l-2.529,3.236l1.76-4.145L53.5,56.971v6.932c0,0.787,0.895,0.867,0.895,0.867
		h11.159c0.895,0,0.947-0.812,0.947-0.812v-6.987L63.863,59.583z"/>
</g>
<g>
	<path fill="#151819" d="M99.783,68.381c-0.042,0-0.076,0.034-0.076,0.076v0.434c0,0.043,0.035,0.077,0.076,0.077h0.434
		c0.042,0,0.077-0.034,0.077-0.077v-0.434c0-0.042-0.035-0.076-0.077-0.076H99.783z M100,67.896c-0.437,0-0.791,0.354-0.791,0.789
		c0,0.437,0.354,0.791,0.791,0.791s0.791-0.354,0.791-0.791C100.791,68.249,100.437,67.896,100,67.896z M100.344,68.891
		c0,0.071-0.057,0.129-0.128,0.129h-0.434c-0.07,0-0.127-0.058-0.127-0.129v-0.434c0-0.07,0.057-0.127,0.127-0.127h0.434
		c0.071,0,0.128,0.057,0.128,0.127V68.891z M103.378,50h-6.756c-0.706,0-1.278,0.57-1.278,1.275v17.449
		c0,0.703,0.572,1.274,1.278,1.274h6.756c0.706,0,1.276-0.571,1.276-1.274V51.275C104.654,50.57,104.084,50,103.378,50z
		 M99.987,50.659c0.099,0,0.179,0.08,0.179,0.179c0,0.1-0.08,0.18-0.179,0.18c-0.098,0-0.178-0.08-0.178-0.18
		C99.809,50.739,99.889,50.659,99.987,50.659z M99.273,51.493h1.403c0.057,0,0.102,0.046,0.102,0.103s-0.045,0.103-0.102,0.103
		h-1.403c-0.056,0-0.103-0.046-0.103-0.103S99.217,51.493,99.273,51.493z M100,69.58c-0.493,0-0.893-0.398-0.893-0.895
		c0-0.492,0.399-0.893,0.893-0.893s0.893,0.398,0.893,0.893C100.893,69.182,100.493,69.58,100,69.58z M104.068,67.245h-8.164V52.756
		h8.164V67.245z"/>
</g>
<g>
	<path fill="#9BB0B5" d="M217.913,21.702h1.651v-0.007c-0.566-0.002-1.117-0.006-1.651-0.012
		C217.913,21.691,217.913,21.702,217.913,21.702z M226.578,21.98c-1.325-0.236-5.26-0.104-6.578,0.652
		c-1.322-0.753-5.252-0.887-6.577-0.648c-1.332,0.236-2.134,1.326-2.118,3.283c0,2.143,1.566,3.691,2.562,3.691
		c4.586,0.079,5.801-2.037,6.115-3.52c0.328,1.482,1.569,3.601,6.151,3.521c0.995,0,2.562-1.55,2.562-3.694
		C228.71,23.309,227.909,22.219,226.578,21.98z M214.35,27.354c-0.798,0-1.695-0.725-1.695-2.215c0-1.492,1.146-1.826,1.695-1.826
		h3.395c0.979,0,1.521,0.42,1.521,1.217C219.266,25.327,218.41,27.354,214.35,27.354z M225.652,27.354
		c-4.06,0-4.914-2.028-4.914-2.826c0-0.797,0.631-1.217,1.521-1.217h3.393c0.551,0,1.695,0.332,1.695,1.825
		S226.449,27.354,225.652,27.354z M219.564,11.05c-0.48,0.013-0.758,0.031-1.049,0.081c0.332-0.033,0.688-0.047,1.049-0.058V11.05z
		 M229.999,21.441c-0.008-2.066-0.642-9.494-8.547-10.311c0.183,0.028,0.377,0.064,0.635,0.123v10.436
		c1.412-0.01,2.879-0.031,4.384-0.073l2.113,0.89l0.98,6.413h0.262l0.173-7.435H230L229.999,21.441L229.999,21.441z M218.516,11.131
		c-7.858,0.805-8.504,7.967-8.515,10.288H210v0.029c0,0.011,0,0.024,0,0.036h0.002l0.172,7.392h0.262l0.98-6.396l2.086-0.875
		c1.229,0.031,2.732,0.062,4.411,0.078V11.268C218.154,11.201,218.337,11.161,218.516,11.131z M220,11.05
		c-0.152,0-0.285,0.021-0.436,0.023v10.622c0.283,0,0.58,0,0.869,0V11.074C220.285,11.07,220.152,11.05,220,11.05z M220.436,11.037
		v0.037c0.349,0.01,0.693,0.023,1.018,0.058C221.135,11.081,220.863,11.061,220.436,11.037z M220.436,21.702h1.651
		c0,0,0-0.009,0-0.013c-0.562,0.004-1.112,0.006-1.651,0.006V21.702z"/>
</g>
<g>
	<g>
		<path fill-rule="evenodd" clip-rule="evenodd" fill="#201F1D" d="M133.666,62.139l-0.162,0.565c0,0-0.043,0.205,0.15,0.242
			c0.2-0.005,0.184-0.192,0.17-0.254L133.666,62.139z M149.985,59.769L150,59.695c-1.647-0.33-3.337-0.334-4.359-0.291
			c0.168-0.606,0.219-1.303,0.219-2.081c0-1.115-0.418-2.007-1.098-2.686c0.118-0.385,0.277-1.236-0.158-2.327
			c0,0-0.769-0.245-2.507,0.92c-0.68-0.17-1.405-0.253-2.131-0.253c-0.8,0-1.605,0.101-2.357,0.307
			c-1.794-1.224-2.587-0.974-2.587-0.974c-0.517,1.294-0.197,2.253-0.1,2.491c-0.608,0.656-0.978,1.494-0.978,2.521
			c0,0.775,0.087,1.473,0.303,2.077c-1.03-0.038-2.66-0.023-4.247,0.295l0.015,0.073c1.597-0.32,3.235-0.332,4.262-0.292
			c0.046,0.125,0.1,0.246,0.159,0.363c-1.015,0.033-2.744,0.162-4.402,0.632l0.021,0.071c1.671-0.472,3.417-0.599,4.421-0.63
			c0.604,1.132,1.798,1.862,3.922,2.092c-0.301,0.202-0.608,0.547-0.732,1.13c-0.412,0.197-1.712,0.677-2.492-0.666
			c0,0-0.438-0.801-1.272-0.862c0,0-0.811-0.013-0.056,0.506c0,0,0.542,0.256,0.916,1.219c0,0,0.489,1.641,2.847,1.114v1.695
			c0,0-0.052,0.6-0.6,0.8c0,0-0.324,0.225,0.024,0.35c0,0,1.521,0.125,1.521-1.124v-1.849c0,0-0.06-0.733,0.3-0.988v3.036
			c0,0-0.024,0.725-0.398,0.999c0,0-0.25,0.45,0.298,0.325c0,0,1.049-0.15,1.098-1.374l0.024-3.072h0.252l0.024,3.072
			c0.049,1.224,1.098,1.374,1.098,1.374c0.547,0.125,0.298-0.325,0.298-0.325c-0.374-0.274-0.398-0.999-0.398-0.999v-3.01
			c0.359,0.28,0.3,0.962,0.3,0.962v1.849c0,1.249,1.521,1.124,1.521,1.124c0.349-0.125,0.025-0.35,0.025-0.35
			c-0.55-0.2-0.599-0.8-0.599-0.8v-2.423c0-0.945-0.397-1.446-0.787-1.71c2.266-0.225,3.353-0.957,3.853-2.096
			c0.993,0.027,2.778,0.148,4.485,0.631l0.021-0.071c-1.697-0.48-3.472-0.605-4.474-0.634c0.047-0.115,0.09-0.234,0.126-0.357
			C146.635,59.437,148.332,59.437,149.985,59.769z M134.099,61.919c-0.09,0-0.161-0.051-0.161-0.112
			c0-0.062,0.071-0.112,0.161-0.112c0.091,0,0.163,0.05,0.163,0.112C134.262,61.868,134.189,61.919,134.099,61.919z M134.386,62.056
			c0-0.062,0.073-0.112,0.162-0.112c0.09,0,0.162,0.051,0.162,0.112c0,0.062-0.072,0.113-0.162,0.113
			C134.459,62.169,134.386,62.118,134.386,62.056z M134.661,62.381c0-0.062,0.071-0.112,0.161-0.112
			c0.091,0,0.163,0.051,0.163,0.112c0,0.062-0.072,0.112-0.163,0.112C134.732,62.493,134.661,62.443,134.661,62.381z M134.91,62.756
			c0-0.062,0.072-0.112,0.163-0.112c0.089,0,0.161,0.05,0.161,0.112s-0.072,0.112-0.161,0.112
			C134.982,62.868,134.91,62.818,134.91,62.756z M135.347,63.218c-0.089,0-0.162-0.05-0.162-0.112c0-0.062,0.073-0.112,0.162-0.112
			s0.162,0.051,0.162,0.112C135.509,63.168,135.436,63.218,135.347,63.218z M135.721,63.518c-0.089,0-0.162-0.05-0.162-0.112
			c0-0.062,0.073-0.112,0.162-0.112s0.162,0.051,0.162,0.112C135.883,63.468,135.81,63.518,135.721,63.518z M136.245,63.718
			c-0.091,0-0.163-0.051-0.163-0.113c0-0.061,0.072-0.112,0.163-0.112c0.09,0,0.161,0.052,0.161,0.112
			C136.406,63.667,136.335,63.718,136.245,63.718z M136.767,63.718c-0.09,0-0.162-0.051-0.162-0.113
			c0-0.061,0.072-0.112,0.162-0.112c0.089,0,0.161,0.052,0.161,0.112C136.928,63.667,136.855,63.718,136.767,63.718z
			 M137.296,63.631c-0.091,0-0.162-0.051-0.162-0.113c0-0.062,0.071-0.112,0.162-0.112c0.09,0,0.162,0.051,0.162,0.112
			C137.458,63.58,137.386,63.631,137.296,63.631z M139.947,61.586c-2.47,0-4.471-0.373-4.471-2.762c0-0.571,0.282-1.104,0.764-1.544
			c0.804-0.735,2.164-0.346,3.707-0.346c1.536,0,2.892-0.394,3.696,0.336c0.487,0.443,0.773,0.978,0.773,1.554
			C144.417,61.514,142.416,61.586,139.947,61.586z M142.521,57.62c-0.514,0-0.93,0.601-0.93,1.341c0,0.741,0.416,1.342,0.93,1.342
			s0.93-0.601,0.93-1.342C143.45,58.221,143.034,57.62,142.521,57.62z M142.532,59.871c-0.343,0-0.62-0.399-0.62-0.893
			c0-0.494,0.277-0.896,0.62-0.896s0.62,0.401,0.62,0.896C143.152,59.472,142.875,59.871,142.532,59.871z M137.53,57.62
			c-0.514,0-0.931,0.601-0.931,1.341c0,0.741,0.417,1.342,0.931,1.342c0.515,0,0.931-0.601,0.931-1.342
			C138.461,58.221,138.045,57.62,137.53,57.62z M137.541,59.871c-0.341,0-0.618-0.399-0.618-0.893c0-0.494,0.277-0.896,0.618-0.896
			c0.343,0,0.621,0.401,0.621,0.896C138.162,59.472,137.884,59.871,137.541,59.871z M139.961,60.385
			c0.128,0,0.231-0.104,0.231-0.233s-0.104-0.232-0.231-0.232c-0.129,0-0.233,0.104-0.233,0.232S139.832,60.385,139.961,60.385z
			 M140.357,60.691c-0.061,0.169-0.221,0.282-0.398,0.282c-0.18,0-0.34-0.113-0.399-0.282c-0.014-0.039-0.057-0.06-0.095-0.046
			c-0.04,0.015-0.061,0.057-0.047,0.096c0.081,0.229,0.298,0.383,0.541,0.383c0.241,0,0.458-0.153,0.538-0.383
			c0.015-0.039-0.005-0.081-0.044-0.096C140.414,60.632,140.371,60.652,140.357,60.691z"/>
	</g>
</g>
<g>
	<g>
		<path fill-rule="evenodd" clip-rule="evenodd" fill="#414A4C" d="M180.023,51c-4.971,0-9.002,4.028-9.002,9s4.031,9,9.002,9
			s8.955-4.028,8.955-9S185.34,51,180.023,51z M183.559,53.793c0,0,0.129-0.479,0.174-0.816c0.156-0.075,0.787,0.363,1.321,0.922
			c-0.36,1.338-1.202,1.258-1.202,1.258s-0.695-0.016-0.614-0.535L183.559,53.793z M181.686,54.606
			c0.081-0.159,0.281-0.239,0.482-0.319c0.199-0.08,0,0.36-0.039,0.601c-0.041,0.241-0.082,0.36,0.199,0.642
			s-0.521,0.082-0.721-0.08C181.406,55.289,181.686,54.606,181.686,54.606z M178.057,62.426c-0.041,0.201-0.42,0.682-0.58,1.002
			s-0.239,0.441-0.439,0.602c-0.201,0.16-0.321,0.441-0.321,0.441l0.052,0.68c0,0,0.199,0.441,0.32,0.642
			c0.12,0.2-0.24,1.283-0.24,1.283c-0.349-0.065-0.68-0.159-0.8-0.481c-0.12-0.32-0.294-0.32-0.255-0.68
			c0.039-0.362-0.561-0.802-0.682-1.002c-0.119-0.203-0.281-0.482-0.281-0.684c0-0.199-0.44-0.48-0.44-0.48
			s-0.802-0.359-0.921-0.521c-0.122-0.16-0.24-0.84-0.281-1.121c-0.04-0.281,0.121-1.002,0.121-1.002s0.319-0.242,0.12-0.443
			c-0.2-0.199-0.241-0.721-0.241-0.721l-0.361-0.399c0,0-0.281-0.401-0.32-0.604c-0.039-0.199,0-0.319,0.039-0.521
			c0.041-0.2-0.078-0.561-0.078-0.762c1.495-3.674,4.008-4.529,4.008-4.529l0.2,0.843c0,0-0.44,0.118-0.681,0.038
			c-0.24-0.079-0.361-0.079-0.361-0.079l-0.32,0.44c0,0-0.12,0.28-0.161,0.439c-0.04,0.163,0.081,0.403,0.081,0.403
			s0.561,0.038,0.561-0.122c0-0.159-0.079-0.24-0.079-0.24l-0.081-0.279c0,0,0.361-0.201,1.323-0.121s0.603,0.763,1.002,0.922
			c0.401,0.16-0.321,0.721-0.481,1.043c-0.16,0.32-0.4-0.4-0.4-0.4s0.24-0.281-0.16-0.362c-0.4-0.079-0.481,0.44-0.281,0.401
			c0.201-0.039,0.24,0.24,0.201,0.441c-0.039,0.2-0.039,0.44-0.24,0.881c-0.201,0.441-0.963,0.441-0.963,0.441
			s0.121,0.201,0.24,0.442c0.121,0.24-0.041,0.802-0.041,0.961s-0.48-0.281-0.559-0.683c-0.081-0.4-0.321-0.252-0.482-0.213
			c-0.161,0.041-0.682,0.16-0.762-0.039c-0.079-0.201-0.801,0.373-1.002,0.494s-0.12,0.44,0.201,0.281
			c0.318-0.16,0.6-0.041,0.521,0.279c-0.081,0.32-0.403,0.12-0.362,0.32c0.041,0.201,0.362,0.402,0.44,0.684
			c0.081,0.279,0.843-0.122,1.084-0.24c0.239-0.122,0.92-0.242,1.002,0.08c0.08,0.319,0.979,0.601,1.26,0.68
			c0.28,0.08,0.842,0.121,1.162,0.441S178.096,62.225,178.057,62.426z M179.722,53.045c-0.04,0.4-0.733,1.002-0.655,1.162
			c0.081,0.16,0.055,1.404-0.506,0.801c-0.562-0.601-1.124-1.441-1.084-1.844c0.008-0.081,0.018-0.205,0.027-0.346
			c0.852-0.79,2.771-0.629,2.873-0.441C180.137,52.777,179.763,52.644,179.722,53.045z M180.645,55.41
			c-0.12-0.2,0.279-0.322,0.279-0.322c0.562,0.122,0.35,0.523,0.309,0.684C181.192,55.931,180.765,55.611,180.645,55.41z
			 M186.979,60.193c0,0,0.309,0.455,0.748,0.428c-0.289,3.352-3.088,5.505-3.088,5.505c-0.428-0.427-0.212-0.802-0.212-0.802
			l0.257-0.641l0.066-1.082c0,0-0.137-1.123-1.207-0.588c-1.148,0.293-0.668,0.43-1.829,0.511c-1.163,0.081-0.722-2.262-0.722-2.262
			c-0.068-0.962,0.106-0.721,0.106-1.471c0-0.749,2.46-0.319,2.46-0.319c1.602,1.069,1.816-0.24,1.816-0.24l1.176-0.428l0.107-0.536
			l-0.643-0.747l-0.962-0.43c0,0-0.44,0.281,0,0.965c0,0-0.146,0.774-0.507,0.574l-0.988-1.217c0,0-0.336,0.574-0.871,0.896
			c-0.533,0.321-1.442-0.013-1.442-0.013s-0.293-0.908,0.269-1.189l0.827-0.016c0,0-0.173-0.467-0.065-0.895
			c0.105-0.426,0.347-0.053,0.774-0.373c0.428-0.321,0.722,0.628,1.362,0.521c0.642-0.107,0.32-0.215,0.748-0.427
			c0.43-0.216,0.749,0.427,0.749,0.427l0.855,0.106c0,0-0.542-1.445-0.739-1.654c-0.022-0.004-0.046-0.011-0.063-0.003
			c0.011-0.035,0.034-0.028,0.063,0.003c0.5,0.099,2.211,3.03,1.706,4.792c-0.177-0.079-0.325-0.145-0.325-0.145h-1.069
			L186.979,60.193z"/>
	</g>
</g>
<g>
	<g>
		<path fill="#414A4C" d="M224.5,54.857c0.71,0,1.286-0.576,1.286-1.286v-1.286c0-0.709-0.576-1.285-1.286-1.285
			s-1.286,0.576-1.286,1.285v1.286C223.214,54.281,223.79,54.857,224.5,54.857z M215.5,54.857c0.71,0,1.285-0.576,1.285-1.286
			v-1.286c0-0.709-0.575-1.285-1.285-1.285s-1.285,0.576-1.285,1.285v1.286C214.215,54.281,214.79,54.857,215.5,54.857z
			 M217.426,61.668v3.468h1.269v-5.142h-1.116c-0.15,0.318-0.357,0.484-0.622,0.701s-0.329,0.281-0.808,0.556v1.153
			c0.365-0.22,0.502-0.311,0.502-0.311S217.195,61.844,217.426,61.668z M227.714,52.929h-1.285v0.643c0,0-0.021,1.948-1.929,1.948
			c0,0-1.929-0.02-1.929-1.928l-0.02-0.663h-5.144v0.643c0,0,0.021,1.948-1.908,1.948c0,0-1.949,0.021-1.949-1.928v-0.663h-1.266
			c-0.709,0-1.285,0.575-1.285,1.286v13.5c0,0.709,0.576,1.285,1.285,1.285h15.429c0.71,0,1.286-0.576,1.286-1.285v-13.5
			C229,53.504,228.424,52.929,227.714,52.929z M227.714,67.715h-15.429V57.429h15.429V67.715z M221.146,62.963
			c-0.236,0.561-0.411,1.347-0.521,2.173h1.402c0.046-0.594,0.136-1.202,0.27-1.638c0.168-0.559,0.216-0.865,0.506-1.32
			c0.239-0.376,0.691-0.664,1.049-0.986V59.98H220v1.288h2.272C221.759,61.906,221.384,62.404,221.146,62.963z"/>
	</g>
</g>
</svg>
