<?xml version="1.0" encoding="utf-8"?>
<!-- Generator: Adobe Illustrator 16.0.0, SVG Export Plug-In . SVG Version: 6.00 Build 0)  -->
<!DOCTYPE svg PUBLIC "-//W3C//DTD SVG 1.1//EN" "http://www.w3.org/Graphics/SVG/1.1/DTD/svg11.dtd">
<svg version="1.1" id="Calque_1" xmlns="http://www.w3.org/2000/svg" xmlns:xlink="http://www.w3.org/1999/xlink" x="0px" y="0px"
	 width="200px" height="80px" viewBox="-0.125 0 200 80" enable-background="new -0.125 0 200 80" xml:space="preserve">
<g>
	<path fill="#9BB0B5" d="M26.697,21.895c0,0-0.128-0.449-0.276,0.138c-0.148,0.595-0.811,1.779-1.696,2.145
		c-0.885,0.366,0.513,0.332,0.72,0.28c0.216-0.062,0.216,0.228-0.359,0.715c-0.574,0.479-2.103,1.49-3.123,0.823
		c0,0-0.662-0.326-0.672-1.333c-0.005-1.003-0.063-8.422-0.063-8.422h0.981c0,0,0.283,0.223,0.66-0.125
		c0.373-0.351,1.062-0.202,1.308-0.254c0.247-0.052,0.468-1.339-0.067-1.412c-0.53-0.077-1.039-0.222-1.113-0.264
		c-0.073-0.044-0.478-0.268-0.765-0.13h-1.071v-0.67c0.498-0.331,0.825-0.899,0.825-1.54c0-1.026-0.84-1.863-1.879-1.863
		c-1.038,0-1.878,0.836-1.878,1.863c0,0.707,0.397,1.327,0.983,1.641v0.569l-1.042-0.004c-0.291-0.138-0.716,0.09-0.792,0.134
		c-0.074,0.042-0.586,0.187-1.116,0.264c-0.532,0.073-0.311,1.36-0.069,1.412c0.247,0.053,0.938-0.097,1.313,0.254
		c0.372,0.347,0.66,0.125,0.66,0.125h0.979c0,0-0.059,7.419-0.064,8.422c-0.006,1.007-0.668,1.333-0.668,1.333
		c-1.024,0.667-2.552-0.344-3.126-0.823c-0.578-0.487-0.578-0.777-0.362-0.715c0.212,0.052,1.608,0.085,0.724-0.28
		c-0.889-0.365-1.548-1.55-1.694-2.145c-0.151-0.587-0.28-0.138-0.28-0.138c-0.422,1.011-0.387,2.215-0.1,3.208
		c0.291,0.992,0.459,0.434,0.555,0.162c0.101-0.279,0.183-0.186,0.183-0.186c0.279,1.016,1.999,2.554,3.47,3.124
		c1.468,0.567,2.404,1.814,2.404,1.814s0.938-1.247,2.404-1.814c1.469-0.57,3.193-2.108,3.471-3.124c0,0,0.082-0.094,0.183,0.186
		c0.1,0.271,0.262,0.83,0.555-0.162C27.086,24.109,27.122,22.905,26.697,21.895z M20.801,12.477c-0.168-0.139-0.38-0.22-0.616-0.22
		c-0.272,0-0.521,0.115-0.696,0.295c-0.205-0.172-0.33-0.423-0.33-0.707c0-0.516,0.424-0.938,0.946-0.938
		c0.519,0,0.947,0.422,0.947,0.938C21.052,12.09,20.955,12.308,20.801,12.477z"/>
</g>
<g>
	<path fill="#9BB0B5" d="M67.646,16.558c-0.021,0.025-0.761,2.593-1.896,1.32c-0.713-1.261-1.474-1.541-1.474-1.541
		c-4.461,1.797-8.421,0-8.421,0s-0.221,0.173-0.529,0.479c-0.607-0.304-1.594-0.547-3.05-0.259
		c-0.986,0.195-2.526,2.138-2.526,3.741c0,3.965,3.789,2.899,5.053,4.621c0.017,0.023,0.029,0.025,0.041,0.028
		c1.281,1.422,2.907,1.952,2.907,1.952h4.211c0,0,4.632-0.995,4.632-5.941c2.716-0.72,1.524-3.501,3.158-4.181
		C69.265,16.777,68.426,16.883,67.646,16.558z M53.451,22.153c-0.862,0.911-3.06-0.31-2.859-1.855
		c0.203-1.571,1.881-4.311,3.897-2.506c-0.595,0.812-1.16,1.909-1.16,3.167C53.329,21.387,53.379,21.779,53.451,22.153z
		 M64.066,16.117c0,0-1.111-0.908-3.347-1.067c0.243-0.202,0.409-0.499,0.409-0.849c0-0.608-0.472-1.101-1.053-1.101
		s-1.053,0.493-1.053,1.101c0,0.349,0.166,0.646,0.408,0.848c-2.247,0.156-3.365,1.068-3.365,1.068
		C57.25,17.173,63.027,17.154,64.066,16.117z"/>
</g>
<g>
	<path fill="#9BB0B5" d="M109.6,20.9c-3.074,0-4.949-4.5-7.5-4.5l-0.007,0.014c-0.049-0.002-0.094-0.014-0.143-0.014
		c-0.787,0-1.482,0.364-1.95,0.925c-0.468-0.561-1.163-0.925-1.95-0.925c-0.049,0-0.095,0.012-0.143,0.015L97.9,16.4
		c-2.55,0-4.425,4.5-7.5,4.5c-1.4,0-2.4-1.2-2.4-1.2s1.45,3.899,5.4,3.899c3.95,0,5.7-2.024,6.6-3l-0.008-0.016
		c0.003-0.003,0.005-0.006,0.008-0.009l0.008,0.009L100,20.6c0.9,0.976,2.65,3,6.6,3c3.95,0,5.4-3.899,5.4-3.899
		S111,20.9,109.6,20.9z"/>
</g>
<g>
	<path fill="#9BB0B5" d="M146.545,20.728v-1.455h-1.454v-1.454h-1.454v-1.454h-1.455v1.454h-1.453h-1.455h-1.455v-1.454h-1.453
		v1.454h-1.454v1.454h-1.454v1.455H132v1.454v1.455v1.454v1.454h1.455v-1.454v-1.454v-1.455h1.454v1.455v1.454h1.454v-1.454h1.455
		h1.453h1.455h1.455h1.453v1.454h1.454v-1.454v-1.455h1.454v1.455v1.454v1.454H148v-1.454v-1.454v-1.455v-1.454H146.545z
		 M139.271,20.728h-1.453h-1.455v-1.455h1.455h1.453V20.728z M143.637,20.728h-1.455h-1.453v-1.455h1.453h1.455V20.728z
		 M140.729,25.091v1.454h1.453h1.455v-1.454h-1.455H140.729z M137.818,26.545h1.453v-1.454h-1.453h-1.455v1.454H137.818z
		 M145.091,14.909h-1.454v1.455h1.454V14.909z M146.545,13.455h-1.454v1.454h1.454V13.455z M134.909,14.909v1.455h1.454v-1.455
		H134.909z M133.455,13.455v1.454h1.454v-1.454H133.455z"/>
</g>
<path fill="#151819" d="M26.499,55.971c-0.479,0.213-0.992,0.354-1.532,0.42c0.55-0.33,0.974-0.854,1.173-1.477
	c-0.516,0.307-1.086,0.525-1.693,0.646c-0.486-0.52-1.18-0.844-1.947-0.844c-1.473,0-2.667,1.194-2.667,2.667
	c0,0.209,0.022,0.413,0.069,0.607c-2.217-0.111-4.182-1.175-5.498-2.787c-0.229,0.396-0.36,0.853-0.36,1.341
	c0,0.928,0.472,1.742,1.187,2.221c-0.437-0.015-0.849-0.135-1.207-0.332c0,0.01,0,0.021,0,0.031c0,1.292,0.918,2.37,2.14,2.615
	c-0.224,0.062-0.459,0.094-0.703,0.094c-0.172,0-0.339-0.017-0.502-0.048c0.339,1.062,1.325,1.831,2.492,1.854
	c-0.913,0.715-2.063,1.142-3.312,1.142c-0.216,0-0.429-0.013-0.637-0.038c1.18,0.757,2.582,1.197,4.088,1.197
	c4.906,0,7.588-4.063,7.588-7.588c0-0.115-0.002-0.229-0.008-0.346C25.688,56.977,26.142,56.505,26.499,55.971z"/>
<g>
	<path fill="#151819" d="M61.271,60.812l5.201-4.698c0-0.867-0.84-0.884-0.84-0.884H54.368c-0.845,0-0.831,0.854-0.831,0.854
		l5.137,4.729C60.109,61.76,61.271,60.812,61.271,60.812z M63.863,59.583l1.779,4.327l-2.627-3.471l-1.617,1.353
		c-1.018,0.877-2.889-0.026-2.889-0.026l-1.625-1.305l-2.529,3.236l1.76-4.146L53.5,56.971v6.932c0,0.787,0.895,0.867,0.895,0.867
		h11.159c0.895,0,0.947-0.812,0.947-0.812v-6.987L63.863,59.583z"/>
</g>
<g>
	<path fill="#151819" d="M99.783,68.381c-0.042,0-0.076,0.034-0.076,0.076v0.434c0,0.043,0.035,0.077,0.076,0.077h0.434
		c0.042,0,0.077-0.034,0.077-0.077v-0.434c0-0.042-0.035-0.076-0.077-0.076H99.783z M100,67.896c-0.437,0-0.791,0.354-0.791,0.789
		c0,0.437,0.354,0.791,0.791,0.791s0.791-0.354,0.791-0.791S100.437,67.896,100,67.896z M100.344,68.891
		c0,0.071-0.057,0.129-0.128,0.129h-0.434c-0.07,0-0.127-0.058-0.127-0.129v-0.434c0-0.07,0.057-0.127,0.127-0.127h0.434
		c0.071,0,0.128,0.057,0.128,0.127V68.891z M103.378,50h-6.756c-0.706,0-1.278,0.57-1.278,1.275v17.449
		c0,0.702,0.572,1.273,1.278,1.273h6.756c0.706,0,1.276-0.571,1.276-1.273V51.275C104.654,50.57,104.084,50,103.378,50z
		 M99.987,50.659c0.099,0,0.179,0.08,0.179,0.179c0,0.1-0.08,0.18-0.179,0.18c-0.098,0-0.178-0.08-0.178-0.18
		C99.809,50.739,99.889,50.659,99.987,50.659z M99.273,51.493h1.403c0.057,0,0.102,0.046,0.102,0.103s-0.045,0.104-0.102,0.104
		h-1.403c-0.056,0-0.103-0.047-0.103-0.104S99.217,51.493,99.273,51.493z M100,69.58c-0.493,0-0.893-0.398-0.893-0.895
		c0-0.492,0.399-0.894,0.893-0.894s0.893,0.397,0.893,0.894S100.493,69.58,100,69.58z M104.068,67.245h-8.164V52.756h8.164V67.245z"
		/>
</g>
<g>
	<g>
		<path fill="#201F1D" d="M133.666,62.139l-0.162,0.565c0,0-0.043,0.205,0.15,0.241c0.199-0.004,0.184-0.191,0.17-0.254
			L133.666,62.139z M149.984,59.77L150,59.695c-1.646-0.33-3.337-0.334-4.359-0.291c0.168-0.606,0.219-1.303,0.219-2.081
			c0-1.115-0.418-2.007-1.098-2.687c0.118-0.385,0.277-1.236-0.158-2.326c0,0-0.769-0.246-2.506,0.92
			c-0.681-0.17-1.406-0.254-2.132-0.254c-0.8,0-1.604,0.102-2.356,0.308c-1.795-1.224-2.588-0.974-2.588-0.974
			c-0.517,1.293-0.196,2.252-0.1,2.49c-0.607,0.656-0.979,1.494-0.979,2.521c0,0.775,0.088,1.473,0.304,2.076
			c-1.03-0.037-2.66-0.022-4.247,0.295l0.016,0.074c1.596-0.32,3.234-0.332,4.262-0.293c0.045,0.125,0.1,0.246,0.158,0.363
			c-1.015,0.033-2.744,0.162-4.401,0.633l0.021,0.07c1.672-0.473,3.418-0.6,4.422-0.63c0.604,1.132,1.797,1.862,3.922,2.092
			c-0.301,0.202-0.608,0.547-0.732,1.13c-0.412,0.197-1.712,0.678-2.492-0.666c0,0-0.438-0.801-1.271-0.861
			c0,0-0.812-0.014-0.057,0.506c0,0,0.543,0.256,0.916,1.219c0,0,0.489,1.641,2.848,1.113v1.695c0,0-0.053,0.601-0.601,0.801
			c0,0-0.323,0.225,0.024,0.35c0,0,1.521,0.125,1.521-1.124v-1.849c0,0-0.061-0.733,0.299-0.988v3.036c0,0-0.023,0.725-0.397,0.999
			c0,0-0.25,0.449,0.298,0.324c0,0,1.049-0.149,1.098-1.373l0.024-3.072h0.252l0.024,3.072c0.049,1.224,1.098,1.373,1.098,1.373
			c0.547,0.125,0.298-0.324,0.298-0.324c-0.374-0.274-0.397-0.999-0.397-0.999v-3.011c0.358,0.28,0.3,0.963,0.3,0.963v1.849
			c0,1.249,1.521,1.124,1.521,1.124c0.35-0.125,0.025-0.35,0.025-0.35c-0.551-0.2-0.6-0.801-0.6-0.801v-2.423
			c0-0.944-0.396-1.446-0.787-1.71c2.267-0.225,3.354-0.957,3.854-2.096c0.993,0.027,2.778,0.148,4.485,0.631l0.021-0.07
			c-1.697-0.48-3.472-0.605-4.474-0.635c0.047-0.115,0.09-0.234,0.126-0.357C146.635,59.438,148.332,59.438,149.984,59.77z
			 M134.1,61.919c-0.091,0-0.162-0.051-0.162-0.112s0.071-0.111,0.162-0.111c0.09,0,0.162,0.05,0.162,0.111
			S134.189,61.919,134.1,61.919z M134.387,62.057c0-0.062,0.072-0.113,0.161-0.113c0.091,0,0.162,0.052,0.162,0.113
			s-0.071,0.112-0.162,0.112C134.459,62.169,134.387,62.118,134.387,62.057z M134.661,62.381c0-0.062,0.071-0.111,0.161-0.111
			c0.091,0,0.162,0.051,0.162,0.111c0,0.062-0.071,0.112-0.162,0.112C134.732,62.493,134.661,62.443,134.661,62.381z M134.91,62.756
			c0-0.062,0.072-0.111,0.163-0.111c0.089,0,0.161,0.049,0.161,0.111s-0.072,0.112-0.161,0.112
			C134.982,62.868,134.91,62.818,134.91,62.756z M135.348,63.218c-0.09,0-0.162-0.05-0.162-0.112c0-0.062,0.072-0.111,0.162-0.111
			c0.088,0,0.161,0.051,0.161,0.111C135.509,63.168,135.436,63.218,135.348,63.218z M135.721,63.518
			c-0.089,0-0.162-0.05-0.162-0.111c0-0.062,0.073-0.112,0.162-0.112c0.09,0,0.162,0.052,0.162,0.112
			C135.883,63.468,135.811,63.518,135.721,63.518z M136.245,63.718c-0.091,0-0.163-0.051-0.163-0.112s0.072-0.112,0.163-0.112
			c0.09,0,0.161,0.052,0.161,0.112C136.406,63.667,136.335,63.718,136.245,63.718z M136.768,63.718
			c-0.091,0-0.162-0.051-0.162-0.112s0.071-0.112,0.162-0.112c0.088,0,0.16,0.052,0.16,0.112
			C136.928,63.667,136.855,63.718,136.768,63.718z M137.296,63.631c-0.091,0-0.162-0.051-0.162-0.113
			c0-0.062,0.071-0.111,0.162-0.111s0.162,0.051,0.162,0.111C137.458,63.58,137.387,63.631,137.296,63.631z M139.947,61.586
			c-2.471,0-4.471-0.373-4.471-2.762c0-0.571,0.281-1.104,0.764-1.545c0.804-0.734,2.164-0.346,3.707-0.346
			c1.535,0,2.892-0.394,3.695,0.336c0.487,0.443,0.773,0.979,0.773,1.555C144.417,61.514,142.416,61.586,139.947,61.586z
			 M142.521,57.62c-0.515,0-0.931,0.601-0.931,1.341c0,0.741,0.416,1.342,0.931,1.342c0.514,0,0.93-0.601,0.93-1.342
			C143.45,58.221,143.034,57.62,142.521,57.62z M142.532,59.871c-0.343,0-0.62-0.398-0.62-0.893s0.277-0.896,0.62-0.896
			s0.62,0.4,0.62,0.896C143.152,59.473,142.875,59.871,142.532,59.871z M137.529,57.62c-0.514,0-0.93,0.601-0.93,1.341
			c0,0.741,0.416,1.342,0.93,1.342c0.516,0,0.932-0.601,0.932-1.342C138.461,58.221,138.045,57.62,137.529,57.62z M137.541,59.871
			c-0.341,0-0.618-0.398-0.618-0.893s0.277-0.896,0.618-0.896c0.343,0,0.621,0.4,0.621,0.896
			C138.162,59.473,137.884,59.871,137.541,59.871z M139.961,60.385c0.128,0,0.23-0.104,0.23-0.232s-0.104-0.232-0.23-0.232
			c-0.129,0-0.232,0.104-0.232,0.232C139.729,60.279,139.832,60.385,139.961,60.385z M140.357,60.691
			c-0.062,0.168-0.221,0.281-0.398,0.281c-0.18,0-0.34-0.113-0.398-0.281c-0.015-0.039-0.058-0.061-0.096-0.047
			c-0.04,0.016-0.061,0.058-0.047,0.097c0.081,0.229,0.298,0.383,0.541,0.383c0.241,0,0.458-0.153,0.538-0.383
			c0.015-0.039-0.005-0.081-0.044-0.097C140.414,60.632,140.371,60.652,140.357,60.691z"/>
	</g>
</g>
<g>
	<g>
		<path fill-rule="evenodd" clip-rule="evenodd" fill="#151819" d="M184.821,52.5h-9.643c-0.592,0-1.071,0.479-1.071,1.071v12.857
			c0,0.592,0.479,1.071,1.071,1.071h7.483l3.23-3.181V53.571C185.893,52.979,185.413,52.5,184.821,52.5z M185.105,64.186
			l-2.594,2.595c-0.469,0.469-0.369-0.352-0.369-0.352v-2.144c0-0.519,0.502-0.519,0.502-0.519h2.261
			C185.691,63.75,185.105,64.186,185.105,64.186z"/>
	</g>
</g>
<g>
	<g>
		<path fill="#9BB0B5" d="M187.718,17.692c0,0-10.575,0-13.489,0l0.453-0.32c3.348-1.933,10.755-6.582,10.755-6.582
			c0.308-0.179,0.413-0.571,0.235-0.88l-0.645-1.588c-0.178-0.309-0.571-0.414-0.88-0.235l-12.187,7.409
			c-0.309,0.178-0.414,0.571-0.236,0.88l1.168,1.265l0.008,9.716c0,0.355,0.289,0.644,0.645,0.644h14.173
			c0.355,0,0.644-0.288,0.644-0.644v-9.02C188.361,17.981,188.073,17.692,187.718,17.692z M183.118,9.611l1.996,0.621l-2.231,1.289
			l-1.996-0.622L183.118,9.611z M178.656,12.188l1.994,0.621l-2.23,1.289l-1.996-0.621L178.656,12.188z M172.621,16.043l2.215-1.277
			l1.996,0.621l-2.268,1.308L172.621,16.043z M175.438,20.27l-1.873-1.933h2.557l1.934,1.933H175.438z M179.986,20.27L178,18.337
			h2.631l1.933,1.933H179.986z M185.141,20.27l-1.933-1.933h2.576l1.934,1.933H185.141z"/>
	</g>
</g>
</svg>
