<?xml version="1.0" encoding="utf-8"?>
<!-- Generator: Adobe Illustrator 16.0.0, SVG Export Plug-In . SVG Version: 6.00 Build 0)  -->
<!DOCTYPE svg PUBLIC "-//W3C//DTD SVG 1.1//EN" "http://www.w3.org/Graphics/SVG/1.1/DTD/svg11.dtd">
<svg version="1.1" id="Calque_1" xmlns="http://www.w3.org/2000/svg" xmlns:xlink="http://www.w3.org/1999/xlink" x="0px" y="0px"
	 width="200px" height="60.016px" viewBox="0 0 200 60.016" enable-background="new 0 0 200 60.016" xml:space="preserve">
<g id="Calque_2" display="none">
	<g display="inline">
		<path fill="#414A4C" d="M120.343,18.953c-6.825,0-10.214,3.493-10.214,8.58c0,3.273,1.65,5.573,3.836,6.635
			c-1.07,0.973-1.962,1.814-2.765,2.653c-0.806,0.841-1.294,1.726-1.294,2.699c0,1.193,0.49,2.3,1.963,2.917
			c-1.562,1.462-2.455,2.521-2.455,4.513c0,3.493,3.079,5.528,11.152,5.528c7.762,0,12.266-2.874,12.266-7.961
			c0-5.88-4.549-6.104-12.266-6.59l-4.371-0.265l1.472-2.344c0.802,0.221,2.097,0.396,3.524,0.396c5.621,0,9.5-2.875,9.5-7.783
			c0-2.035-0.848-3.45-1.649-4.469l4.104-0.309v-3.759h-8.699C123.421,19.129,122.262,18.953,120.343,18.953z M122.35,44.075
			c2.144,0.133,3.838,0.221,3.838,1.638c0,2.386-3.523,2.565-6.11,2.565c-3.123,0-5.397-0.531-5.397-2.3
			c0-0.886,0.578-1.638,1.159-2.344L122.35,44.075z M120.613,31.071c-2.946,0-4.15-1.504-4.15-3.671
			c0-2.875,1.828-4.069,4.281-4.069c2.543,0,4.061,1.372,4.061,3.98C124.805,29.613,123.109,31.071,120.613,31.071z M140.995,15.427
			c2.587,0,4.06-1.46,4.06-3.981c0-2.521-1.473-3.893-4.06-3.893c-2.544,0-4.015,1.372-4.015,3.893S138.451,15.427,140.995,15.427z
			 M144.964,37.32V18.966h-9.233l-0.492,3.581l2.41,0.842c0.447,0.131,0.58,0.441,0.58,0.927V37.32c0,0.665-0.088,0.796-0.713,0.886
			l-2.275,0.31v3.492h12.714v-3.492l-2.274-0.31C145.007,38.116,144.964,38.028,144.964,37.32z M164.389,36.399
			c-1.07,0.398-2.363,0.707-3.615,0.707c-2.406,0-3.031-1.018-3.031-3.626V22.91h6.646v-4.422H158.1
			c-0.357,0-0.357-0.133-0.357-0.442v-6.281h-4.239c-0.489,4.82-2.051,6.768-5.978,7.21v3.937h3.123
			c0.358,0,0.358,0.177,0.358,0.442V34.94c0,5,2.007,7.12,7.313,7.12c2.545,0,5.354-0.841,7.272-1.769L164.389,36.399z
			 M32.662,1.134c-1.507-1.509-3.954-1.509-5.462,0l-5.438,5.441l6.898,6.902c1.604-0.542,3.442-0.18,4.72,1.1
			c1.285,1.287,1.645,3.142,1.09,4.751l6.649,6.651c1.609-0.555,3.465-0.195,4.749,1.092c1.796,1.796,1.796,4.706,0,6.503
			c-1.796,1.797-4.705,1.797-6.502,0c-1.35-1.353-1.684-3.337-1-5.001l-6.201-6.204v16.325c0.438,0.217,0.851,0.506,1.216,0.869
			c1.795,1.796,1.795,4.706,0,6.504c-1.796,1.796-4.706,1.796-6.5,0c-1.795-1.798-1.795-4.708,0-6.504
			c0.444-0.443,0.957-0.778,1.505-1.003V22.084c-0.548-0.225-1.06-0.558-1.505-1.004c-1.36-1.358-1.688-3.355-0.99-5.027l-6.8-6.805
			L1.131,27.213c-1.509,1.512-1.509,3.958,0,5.469l26.19,26.198c1.508,1.511,3.954,1.511,5.463,0l26.067-26.078
			c1.509-1.51,1.509-3.958,0-5.467L32.662,1.134z"/>
	</g>
</g>
<g id="Calque_3" display="none">
	<g display="inline">
		<path fill="#414A4C" d="M173.225,38.686h4.273V17.921h-4.273V38.686z M38.922,11.243c-0.047-0.029-0.093-0.053-0.14-0.082
			c-2.67-1.677-5.293-2.466-7.87-4.006c-0.248-0.149-0.496-0.295-0.744-0.459c-1.774-1.209-4.234-4.088-6.295-6.563
			c0,0.002,0,0.005-0.001,0.007c-0.003-0.005-0.007-0.01-0.011-0.014c-0.121,1.201-0.317,2.171-0.562,2.999
			c-0.518,1.698-1.269,2.712-2.109,3.479c-0.101,0.087-0.2,0.177-0.305,0.257c-2.919,2.303-4.75,2.994-7.268,4.376
			c-0.217,0.118-0.537,0.3-0.929,0.54c-1.523,0.921-4.179,2.79-6.671,5.746C2.877,21.236,0,26.663,0,34.092
			c0,0.897,0.06,1.776,0.147,2.644c0.006,0.057,0.011,0.114,0.018,0.17c0.044,0.411,0.097,0.818,0.161,1.222
			c0.007,0.042,0.015,0.084,0.021,0.126c0.205,1.256,0.498,2.477,0.876,3.653c0.012,0.038,0.023,0.077,0.036,0.115
			c0.117,0.356,0.243,0.709,0.375,1.059c0.034,0.09,0.069,0.18,0.104,0.271c0.134,0.342,0.271,0.681,0.419,1.015
			c0.021,0.049,0.045,0.096,0.066,0.144c0.368,0.818,0.767,1.617,1.215,2.384c0.11,0.188,0.234,0.368,0.35,0.554
			c0.101,0.163,0.203,0.326,0.307,0.486c0.159,0.243,0.32,0.485,0.487,0.724c0.124,0.177,0.253,0.35,0.382,0.523
			c0.258,0.349,0.524,0.69,0.8,1.025c0.172,0.209,0.343,0.419,0.521,0.623c0.166,0.189,0.336,0.372,0.507,0.556
			c0.176,0.189,0.354,0.376,0.535,0.561c0.167,0.169,0.333,0.338,0.504,0.503c0.252,0.242,0.51,0.478,0.771,0.709
			c0.188,0.167,0.377,0.331,0.57,0.492c0.276,0.231,0.556,0.459,0.841,0.68c0.156,0.121,0.315,0.238,0.475,0.355
			c0.269,0.197,0.542,0.391,0.818,0.579c0.142,0.097,0.283,0.195,0.427,0.289c0.412,0.27,0.829,0.528,1.255,0.773
			c0.084,0.049,0.171,0.093,0.256,0.141c0.368,0.207,0.741,0.405,1.119,0.595c0.129,0.064,0.259,0.128,0.389,0.189
			c0.389,0.188,0.782,0.365,1.18,0.534c0.077,0.032,0.152,0.067,0.229,0.099c0.493,0.203,0.992,0.393,1.497,0.565
			c0.053,0.018,0.107,0.034,0.161,0.052c0.458,0.154,0.92,0.294,1.387,0.424c0.085,0.023,0.17,0.048,0.255,0.07
			c1.062,0.283,2.144,0.501,3.243,0.65c0.022,0.003,0.045,0.005,0.067,0.009c0.541,0.072,1.086,0.126,1.634,0.164
			c0.03,0.002,0.059,0.005,0.088,0.007c0.574,0.038,1.15,0.064,1.729,0.064c13.789,0,25.749-10.075,25.749-25.331
			C51.969,19.302,40.754,12.394,38.922,11.243z M39.253,54.472c-0.286,0.287-2.918,2.13-6.008,2.417
			c-3.09,0.287-7.268,0.461-9.785-1.843c-0.4-0.402-0.286-0.979,0-1.209c0.286-0.229,0.516-0.402,0.858-0.402
			c0.344,0,0.286,0,0.458,0.115c1.145,0.922,2.86,1.669,6.523,1.669c3.661,0,6.237-1.035,7.381-1.899
			c0.515-0.402,0.744-0.058,0.802,0.173C39.539,53.723,39.654,54.068,39.253,54.472z M29.239,49.233
			c0.629-0.576,1.659-1.498,2.632-1.9s1.488-0.345,2.404-0.345c0.915,0,1.888,0.058,2.574,0.518
			c0.688,0.461,1.087,1.497,1.316,2.072c0.229,0.576,0,0.921-0.458,1.151c-0.4,0.23-0.458,0.115-0.858-0.633
			c-0.4-0.749-0.744-1.497-2.746-1.497c-2.003,0-2.632,0.69-3.605,1.497c-0.973,0.806-1.315,1.094-1.659,0.633
			C28.495,50.269,28.609,49.809,29.239,49.233z M50.183,40.021c0,1.785-0.573,5.008-1.945,7.023
			c-1.374,2.016-2.231,2.764-3.835,2.647c-2.06-0.172-6.18-6.621-8.811-6.735c-3.319-0.115-10.529,6.966-16.194,6.966
			c-3.434,0-4.464-0.519-5.608-1.267c-1.716-1.209-2.574-3.051-2.517-5.584c0.057-4.491,4.234-8.693,9.498-8.75
			c6.694-0.058,11.33,6.678,14.706,6.62c2.861-0.059,8.354-5.699,11.043-5.699C49.381,35.243,50.183,38.237,50.183,40.021z
			 M180.652,18.687h1.22v3.289h0.894v-3.289h1.219v-0.745h-3.33v0.745H180.652z M163.027,22.479c-4.672,0-8.461,3.761-8.461,8.396
			c0,3.85,2.608,7.088,6.164,8.083c3.973,0.96,5.762-2.102,6.088-2.906c0.033-0.083,0.063-0.174,0.203-0.173
			c0.153,0.002,0.16,0.173,0.16,0.173l0.004,2.627h4.303v-7.805C171.488,26.24,167.701,22.479,163.027,22.479z M163.025,35.127
			c-2.366,0-4.283-1.902-4.283-4.251c0-2.347,1.917-4.25,4.283-4.25c2.363,0,4.281,1.903,4.281,4.25
			C167.307,33.224,165.391,35.127,163.025,35.127z M144.473,22.479c-4.672,0-8.459,3.761-8.459,8.396c0,0,0,11.479,0,13.021h4.303
			v-5.707c0,0,0.002,0.001,0.002,0.002v-2.139c0,0,0.008-0.171,0.162-0.173c0.139-0.001,0.17,0.09,0.203,0.173
			c0.325,0.805,2.114,3.866,6.088,2.906c3.555-0.995,6.162-4.233,6.162-8.083C152.934,26.24,149.146,22.479,144.473,22.479z
			 M144.477,35.127c-2.365,0-4.281-1.902-4.281-4.251c0-2.347,1.916-4.25,4.281-4.25c2.366,0,4.282,1.903,4.282,4.25
			C148.759,33.224,146.843,35.127,144.477,35.127z M130.203,30.758c0,2.331-1.006,4.218-3.355,4.218
			c-2.349,0-3.365-1.887-3.365-4.218v-7.969h-4.283l-0.002,7.969c0,4.606,2.982,8.341,7.626,8.341c4.64,0,7.668-3.734,7.668-8.341
			l0.002-7.977h-4.295L130.203,30.758z M109.6,25.592c-0.049,0.097-0.05,0.15-0.213,0.146c-0.135-0.003-0.15-0.146-0.15-0.146
			l-0.457-2.779h-3.828v15.859h4.291v-8.584c0-0.7,1.904-4.064,5.592-3.198c1.865,0.438,2.654,1.223,2.654,1.223s0-3.062,0-4.832
			c-0.688-0.357-1.162-0.53-1.783-0.672C112.02,21.764,109.695,25.397,109.6,25.592z M187.57,17.941l-0.899,2.772h-0.011
			l-0.951-2.772h-1.258v4.034h0.837v-2.831h0.011l0.997,2.831h0.688l0.996-2.859h0.012v2.859h0.837v-4.034H187.57z M91.861,17.913
			h-5.238v20.734h4.882c6.414,0,11.511-1.244,11.511-10.367C103.016,19.068,98.204,17.913,91.861,17.913z M92.717,35.094
			l-1.771-0.046V21.507h1.726c3.955,0,6.022,0.553,6.022,6.772C98.693,34.766,96.352,35.094,92.717,35.094z"/>
	</g>
</g>
<g id="Calque_4" display="none">
	<g display="inline">
		<path fill="#414A4C" d="M35.577,26.01v-0.144c0.672-0.168,1.261-0.433,1.765-0.792c0.504-0.36,0.911-0.769,1.224-1.225
			c0.312-0.455,0.546-0.947,0.702-1.477c0.156-0.526,0.234-1.056,0.234-1.584c0-1.128-0.223-2.062-0.666-2.809
			c-0.445-0.743-1.057-1.343-1.836-1.8c-0.78-0.455-1.692-0.773-2.736-0.954s-2.178-0.271-3.402-0.271h-8.028v23.473h8.712
			c1.272,0,2.46-0.139,3.564-0.414s2.07-0.695,2.898-1.261c0.828-0.562,1.476-1.277,1.943-2.142
			c0.469-0.864,0.702-1.896,0.702-3.097c0-1.584-0.427-2.819-1.278-3.708C38.523,26.924,37.257,26.324,35.577,26.01z M28.125,19.063
			h2.521c1.247,0,2.172,0.191,2.772,0.576s0.899,1.021,0.899,1.907c0,0.89-0.294,1.592-0.882,2.106
			c-0.589,0.516-1.53,0.772-2.826,0.772h-2.484V19.063z M31.113,34.328h-2.988v-6.156h2.988c1.464,0,2.557,0.234,3.276,0.702
			c0.719,0.468,1.08,1.219,1.08,2.25C35.47,33.26,34.018,34.328,31.113,34.328z M57.851,22.591
			c-0.805-0.792-1.728-1.396-2.772-1.816s-2.13-0.631-3.258-0.631c-1.128,0-2.22,0.211-3.275,0.631
			c-1.057,0.42-1.986,1.024-2.79,1.816c-0.805,0.792-1.446,1.771-1.927,2.936s-0.72,2.49-0.72,3.978c0,1.488,0.239,2.814,0.72,3.979
			c0.48,1.165,1.122,2.143,1.927,2.935c0.804,0.792,1.733,1.398,2.79,1.818c1.056,0.419,2.147,0.63,3.275,0.63
			c1.128,0,2.214-0.211,3.258-0.63c1.045-0.42,1.968-1.026,2.772-1.818c0.804-0.792,1.445-1.77,1.926-2.935
			c0.479-1.163,0.72-2.489,0.72-3.979c0-1.486-0.24-2.812-0.72-3.978C59.296,24.362,58.654,23.383,57.851,22.591z M54.269,33.211
			c-0.553,0.912-1.368,1.368-2.448,1.368c-1.104,0-1.926-0.456-2.466-1.368s-0.81-2.146-0.81-3.708c0-1.56,0.27-2.796,0.81-3.708
			s1.362-1.368,2.466-1.368c1.08,0,1.896,0.456,2.448,1.368c0.552,0.912,0.828,2.148,0.828,3.708
			C55.097,31.064,54.82,32.299,54.269,33.211z M77.582,22.591c-0.805-0.792-1.729-1.396-2.772-1.816s-2.13-0.631-3.258-0.631
			c-1.128,0-2.22,0.211-3.276,0.631c-1.056,0.42-1.985,1.024-2.789,1.816c-0.805,0.792-1.446,1.771-1.927,2.936
			s-0.72,2.49-0.72,3.978c0,1.488,0.239,2.814,0.72,3.979c0.48,1.165,1.122,2.143,1.927,2.935c0.804,0.792,1.733,1.398,2.789,1.818
			c1.057,0.419,2.148,0.63,3.276,0.63c1.128,0,2.214-0.211,3.258-0.63c1.044-0.42,1.968-1.026,2.772-1.818s1.445-1.77,1.926-2.935
			c0.479-1.163,0.72-2.489,0.72-3.979c0-1.486-0.24-2.812-0.72-3.978C79.027,24.362,78.386,23.383,77.582,22.591z M74,33.211
			c-0.553,0.912-1.368,1.368-2.448,1.368c-1.104,0-1.926-0.456-2.466-1.368s-0.811-2.146-0.811-3.708
			c0-1.56,0.271-2.796,0.811-3.708s1.361-1.368,2.466-1.368c1.08,0,1.896,0.456,2.448,1.368c0.552,0.912,0.828,2.148,0.828,3.708
			C74.828,31.064,74.552,32.299,74,33.211z M92.68,34.616c-0.3,0.072-0.594,0.107-0.882,0.107c-0.696,0-1.254-0.223-1.674-0.666
			s-0.63-1.17-0.63-2.179v-7.164h4.284v-4.14h-4.284v-4.752h-4.393l-0.611,4.752l-2.736,0.216v3.924h2.448v7.236
			c0,1.032,0.113,1.975,0.342,2.826c0.228,0.852,0.588,1.578,1.08,2.178c0.491,0.602,1.128,1.068,1.908,1.404
			c0.779,0.336,1.722,0.504,2.826,0.504c0.863,0,1.62-0.072,2.268-0.216c0.647-0.146,1.212-0.288,1.692-0.434l-0.828-3.852
			C93.25,34.459,92.979,34.543,92.68,34.616z M108.538,29.503c-0.468-0.408-0.983-0.75-1.548-1.025s-1.135-0.521-1.711-0.737
			c-0.456-0.168-0.895-0.33-1.313-0.486c-0.42-0.154-0.792-0.316-1.116-0.485c-0.324-0.167-0.582-0.354-0.772-0.559
			c-0.192-0.204-0.288-0.45-0.288-0.737c0-0.937,0.671-1.403,2.016-1.403c0.625,0,1.248,0.132,1.873,0.396
			c0.623,0.266,1.26,0.638,1.907,1.116l2.376-3.168c-0.77-0.576-1.669-1.099-2.699-1.565c-1.033-0.469-2.232-0.702-3.601-0.702
			c-1.032,0-1.97,0.139-2.81,0.414c-0.839,0.275-1.561,0.653-2.16,1.135c-0.6,0.479-1.062,1.066-1.386,1.764
			c-0.323,0.696-0.485,1.452-0.485,2.269c0,0.743,0.144,1.397,0.432,1.962c0.288,0.563,0.66,1.057,1.116,1.477
			c0.455,0.42,0.959,0.773,1.512,1.062c0.552,0.288,1.104,0.54,1.656,0.757c0.455,0.19,0.898,0.365,1.332,0.521
			c0.432,0.156,0.82,0.33,1.17,0.521c0.348,0.191,0.624,0.401,0.827,0.631c0.204,0.228,0.307,0.485,0.307,0.773
			c0,0.479-0.18,0.853-0.54,1.115c-0.359,0.266-0.938,0.396-1.729,0.396c-0.768,0-1.524-0.156-2.268-0.469
			c-0.745-0.312-1.525-0.779-2.341-1.403l-2.376,3.312c0.912,0.744,1.985,1.346,3.222,1.801c1.236,0.456,2.442,0.685,3.618,0.685
			c1.2,0,2.256-0.15,3.168-0.45s1.68-0.708,2.305-1.225c0.623-0.517,1.092-1.121,1.404-1.817c0.312-0.695,0.467-1.452,0.467-2.269
			c0-0.815-0.144-1.519-0.432-2.105S109.006,29.912,108.538,29.503z M122.812,34.616c-0.301,0.072-0.595,0.107-0.883,0.107
			c-0.695,0-1.255-0.223-1.674-0.666c-0.421-0.443-0.63-1.17-0.63-2.179v-7.164h4.283v-4.14h-4.283v-4.752h-4.394l-0.611,4.752
			l-2.734,0.216v3.924h2.447v7.236c0,1.032,0.113,1.975,0.342,2.826s0.588,1.578,1.08,2.178c0.491,0.602,1.128,1.068,1.908,1.404
			c0.779,0.336,1.723,0.504,2.824,0.504c0.865,0,1.621-0.072,2.27-0.216c0.646-0.146,1.211-0.288,1.691-0.434l-0.828-3.852
			C123.381,34.459,123.111,34.543,122.812,34.616z M137.18,20.143c-0.912,0-1.824,0.288-2.736,0.863
			c-0.912,0.576-1.691,1.477-2.34,2.7h-0.145l-0.359-3.132h-4.32V38.43h5.293V28.063c0.479-1.225,1.085-2.075,1.816-2.557
			c0.732-0.479,1.436-0.72,2.106-0.72c0.384,0,0.72,0.024,1.008,0.072s0.601,0.12,0.937,0.216l0.863-4.572
			c-0.264-0.12-0.558-0.21-0.882-0.27C138.098,20.173,137.684,20.143,137.18,20.143z M148.973,20.143
			c-1.416,0-2.754,0.217-4.014,0.647c-1.261,0.433-2.467,0.996-3.619,1.691l1.873,3.492c0.863-0.505,1.68-0.899,2.447-1.188
			s1.535-0.432,2.305-0.432c0.959,0,1.655,0.232,2.088,0.701c0.432,0.469,0.672,1.099,0.721,1.891
			c-3.528,0.359-6.084,1.068-7.668,2.124s-2.377,2.52-2.377,4.392c0,0.77,0.127,1.478,0.379,2.124
			c0.252,0.648,0.604,1.22,1.062,1.71c0.456,0.492,1.009,0.876,1.656,1.152c0.647,0.275,1.38,0.414,2.196,0.414
			c1.008,0,1.938-0.211,2.789-0.63c0.853-0.42,1.662-0.966,2.431-1.64h0.108l0.396,1.837h4.319V28.208
			c0-2.76-0.605-4.794-1.817-6.103C153.034,20.797,151.275,20.143,148.973,20.143z M150.771,33.248
			c-0.479,0.48-0.937,0.854-1.367,1.116c-0.432,0.263-0.961,0.396-1.584,0.396c-0.625,0-1.122-0.138-1.494-0.413
			s-0.559-0.702-0.559-1.277c0-0.696,0.36-1.297,1.08-1.801c0.721-0.504,2.027-0.888,3.924-1.151V33.248z M176.682,25.49
			c-0.324-1.116-0.787-2.07-1.386-2.862c-0.601-0.792-1.332-1.403-2.196-1.836c-0.863-0.432-1.836-0.647-2.916-0.647
			c-0.936,0-1.842,0.211-2.718,0.631c-0.877,0.42-1.663,0.94-2.358,1.564h-0.144l-0.36-1.764h-4.319v24.479h5.292v-5.221
			l-0.18-2.844c0.623,0.6,1.295,1.062,2.016,1.386s1.464,0.486,2.232,0.486c0.959,0,1.89-0.216,2.789-0.648
			c0.9-0.432,1.705-1.062,2.412-1.89s1.271-1.836,1.691-3.024c0.42-1.188,0.631-2.55,0.631-4.086
			C177.168,27.847,177.006,26.606,176.682,25.49z M170.76,33.301c-0.648,0.828-1.429,1.242-2.34,1.242
			c-0.457,0-0.925-0.084-1.404-0.252s-0.959-0.468-1.439-0.899v-7.309c1.009-1.08,2.027-1.62,3.061-1.62
			c2.063,0,3.096,1.608,3.096,4.824C171.73,31.135,171.407,32.473,170.76,33.301z"/>
	</g>
</g>
<g>
	<path fill-rule="evenodd" clip-rule="evenodd" fill="#414A4C" d="M29.973,31.349c0-0.581-0.306-1.115-0.808-1.403l-13.372-7.695
		c-0.226-0.133-0.479-0.202-0.736-0.213c-0.023,0-0.12,0-0.138,0c-0.256,0.011-0.509,0.08-0.739,0.213L0.809,29.946
		C0.31,30.234,0,30.768,0,31.349l0.029,20.722c0,0.288,0.15,0.557,0.403,0.698c0.248,0.148,0.555,0.148,0.802,0l7.947-4.551
		c0.503-0.299,0.809-0.825,0.809-1.401v-9.682c0-0.577,0.306-1.111,0.806-1.397l3.384-1.949c0.252-0.146,0.528-0.217,0.81-0.217
		c0.276,0,0.559,0.071,0.803,0.217l3.383,1.949c0.501,0.286,0.808,0.82,0.808,1.397v9.682c0,0.576,0.31,1.105,0.81,1.401
		l7.945,4.551c0.249,0.148,0.56,0.148,0.808,0c0.246-0.142,0.401-0.41,0.401-0.698L29.973,31.349z"/>
	<path fill-rule="evenodd" clip-rule="evenodd" fill="#414A4C" d="M101.375,2.864c-0.25-0.139-0.555-0.136-0.802,0.009
		c-0.248,0.146-0.399,0.41-0.399,0.697v20.521c0,0.202-0.108,0.389-0.282,0.49c-0.175,0.101-0.391,0.101-0.566,0l-3.35-1.93
		c-0.5-0.288-1.114-0.288-1.614,0l-13.377,7.72c-0.5,0.289-0.808,0.822-0.808,1.398v15.444c0,0.577,0.308,1.109,0.808,1.399
		l13.376,7.726c0.5,0.288,1.116,0.288,1.616,0l13.378-7.726c0.5-0.29,0.808-0.822,0.808-1.399V8.717
		c0-0.585-0.316-1.125-0.828-1.411L101.375,2.864z M100.134,42.138c0,0.145-0.076,0.278-0.202,0.351l-4.593,2.647
		c-0.125,0.072-0.278,0.072-0.403,0l-4.593-2.647c-0.125-0.072-0.202-0.206-0.202-0.351v-5.302c0-0.145,0.077-0.279,0.202-0.351
		l4.593-2.653c0.125-0.071,0.279-0.071,0.404,0l4.592,2.653c0.126,0.071,0.202,0.206,0.202,0.351V42.138z"/>
	<path fill-rule="evenodd" clip-rule="evenodd" fill="#414A4C" d="M149.234,36.697c0.496-0.289,0.804-0.821,0.804-1.396v-3.742
		c0-0.576-0.308-1.108-0.805-1.397l-13.291-7.717c-0.501-0.291-1.118-0.291-1.619-0.002l-13.372,7.72
		c-0.5,0.288-0.808,0.822-0.808,1.398v15.44c0,0.58,0.312,1.116,0.816,1.403l13.289,7.571c0.489,0.28,1.09,0.283,1.584,0.01
		l8.038-4.468c0.255-0.143,0.413-0.41,0.415-0.701s-0.153-0.561-0.405-0.705l-13.458-7.726c-0.251-0.144-0.405-0.411-0.405-0.699
		v-4.84c0-0.288,0.154-0.555,0.404-0.699l4.188-2.414c0.249-0.144,0.557-0.144,0.806,0l4.19,2.414
		c0.251,0.145,0.404,0.411,0.404,0.699v3.809c0,0.289,0.154,0.555,0.404,0.699s0.56,0.144,0.809-0.002L149.234,36.697z"/>
	<path fill-rule="evenodd" clip-rule="evenodd" fill="#414A4C" d="M54.297,22.361c0.5-0.289,1.116-0.289,1.615,0l13.375,7.719
		c0.5,0.289,0.808,0.821,0.808,1.399v15.45c0,0.576-0.308,1.108-0.808,1.398l-13.375,7.726c-0.5,0.287-1.116,0.287-1.616,0
		l-13.372-7.726c-0.5-0.289-0.808-0.822-0.808-1.398v-15.45c0-0.578,0.308-1.11,0.808-1.399L54.297,22.361z"/>
	<path fill="#414A4C" d="M175.204,56.272c-0.461,0-0.919-0.121-1.322-0.354l-4.212-2.491c-0.628-0.352-0.321-0.477-0.113-0.549
		c0.838-0.291,1.008-0.358,1.903-0.866c0.094-0.053,0.217-0.032,0.313,0.024l3.235,1.921c0.117,0.064,0.282,0.064,0.391,0
		l12.612-7.28c0.117-0.066,0.192-0.202,0.192-0.341V31.78c0-0.143-0.075-0.275-0.195-0.348l-12.607-7.273
		c-0.116-0.068-0.271-0.068-0.389,0l-12.604,7.275c-0.122,0.07-0.2,0.208-0.2,0.346v14.556c0,0.139,0.078,0.271,0.199,0.337
		l3.455,1.996c1.875,0.938,3.022-0.167,3.022-1.275V33.022c0-0.203,0.163-0.364,0.366-0.364h1.6c0.2,0,0.365,0.161,0.365,0.364
		v14.371c0,2.502-1.362,3.937-3.734,3.937c-0.729,0-1.303,0-2.905-0.79l-3.308-1.903c-0.816-0.473-1.322-1.355-1.322-2.301V31.78
		c0-0.946,0.506-1.829,1.322-2.299l12.613-7.288c0.798-0.452,1.858-0.452,2.65,0l12.611,7.288c0.817,0.472,1.325,1.353,1.325,2.299
		v14.556c0,0.945-0.508,1.825-1.325,2.301l-12.611,7.281C176.129,56.151,175.671,56.272,175.204,56.272z"/>
	<path fill="#414A4C" d="M179.101,46.244c-5.52,0-6.676-2.533-6.676-4.658c0-0.202,0.162-0.363,0.364-0.363h1.631
		c0.182,0,0.334,0.131,0.362,0.309c0.246,1.66,0.98,2.498,4.318,2.498c2.656,0,3.788-0.602,3.788-2.011
		c0-0.812-0.321-1.416-4.45-1.82c-3.451-0.341-5.585-1.104-5.585-3.864c0-2.545,2.145-4.062,5.741-4.062
		c4.04,0,6.039,1.402,6.293,4.411c0.009,0.104-0.027,0.203-0.097,0.28c-0.069,0.072-0.165,0.116-0.267,0.116h-1.638
		c-0.169,0-0.319-0.12-0.354-0.284c-0.393-1.747-1.348-2.306-3.938-2.306c-2.901,0-3.238,1.011-3.238,1.769
		c0,0.917,0.397,1.184,4.314,1.702c3.876,0.513,5.717,1.238,5.717,3.962C185.388,44.67,183.097,46.244,179.101,46.244z"/>
	<g>
		<path fill="#414A4C" d="M196.491,22.226V22.6h-1.061v2.766h-0.429V22.6h-1.058v-0.374H196.491z"/>
		<path fill="#414A4C" d="M196.871,22.226h0.609l0.901,2.654l0.897-2.654h0.605v3.14h-0.406v-1.853c0-0.065,0.001-0.17,0.003-0.317
			c0.004-0.151,0.007-0.31,0.007-0.479l-0.898,2.649h-0.421l-0.904-2.649v0.094c0,0.078,0,0.195,0.005,0.354
			c0.003,0.156,0.008,0.272,0.008,0.348v1.853h-0.406V22.226z"/>
	</g>
	<path fill-rule="evenodd" clip-rule="evenodd" fill="#414A4C" d="M134.936,35.973c0.096-0.055,0.214-0.055,0.311,0l2.566,1.48
		c0.096,0.057,0.155,0.158,0.155,0.27v2.964c0,0.111-0.06,0.214-0.155,0.268l-2.566,1.482c-0.097,0.055-0.215,0.055-0.311,0
		l-2.564-1.482c-0.096-0.054-0.155-0.156-0.155-0.268v-2.964c0-0.111,0.06-0.213,0.155-0.27L134.936,35.973z"/>
</g>
</svg>
